<svg viewBox="0 0 1265.3 272.4" xmlns="http://www.w3.org/2000/svg"><g fill="#fff"><ellipse transform="rotate(-45.001 59.067 218.824)" cx="59.1" cy="218.8" rx="17" ry="4.4" opacity=".5"/><path d="M62.2 222c-6.6 6.6-13.4 10.6-15.2 8.9l13.7 13.7c1.7 1.7 8.5-2.2 15.2-8.9 6.6-6.6 10.6-13.4 8.9-15.2l-13.7-13.7c1.7 1.7-2.2 8.5-8.9 15.2z"/><ellipse transform="rotate(45.96 70.565 171.648)" cx="70.6" cy="171.7" rx="9.5" ry="2.5" opacity=".5"/><path d="M68.8 173.4c-3.7-3.8-5.8-7.6-4.8-8.6l-7.8 7.6c-1 1 1.2 4.8 4.8 8.6 3.7 3.8 7.4 6.1 8.4 5.1l7.8-7.6c-1 .9-4.8-1.3-8.4-5.1z"/><ellipse transform="rotate(-6.898 432.255 213.477)" cx="432.1" cy="213.4" rx="9.5" ry="2.5" opacity=".5"/><path d="M432.4 215.9c-5.2.6-9.6 0-9.7-1.3l1.3 10.8c.2 1.4 4.5 2 9.7 1.3 5.2-.6 9.3-2.2 9.1-3.6l-1.3-10.8c.2 1.3-3.8 3-9.1 3.6z"/><ellipse transform="rotate(157.926 164 193.778)" cx="164" cy="193.8" rx="5.6" ry="1.5" opacity=".5"/><path d="M163.5 192.4c2.8-1.2 5.4-1.5 5.7-.7l-2.4-5.9c-.3-.7-2.9-.4-5.7.7-2.8 1.2-4.9 2.7-4.6 3.4l2.4 5.9c-.4-.7 1.7-2.2 4.6-3.4z"/><ellipse transform="rotate(-142.852 1045.163 8.636)" cx="1045.2" cy="8.6" rx="5.6" ry="1.5" opacity=".5"/><path d="M1046.1 7.5c2.4 1.9 4 3.9 3.6 4.5l3.8-5.1c.5-.6-1.1-2.7-3.6-4.5s-4.8-2.8-5.3-2.2l-3.8 5.1c.5-.7 2.9.3 5.3 2.2z"/><ellipse transform="rotate(178.798 1229.898 89.601) scale(1.00002)" cx="1229.9" cy="89.6" rx="22.2" ry="5.8" opacity=".5"/><path d="M1229.8 83.8c12.3-.3 22.2 2.1 22.3 5.3l-.5-25.4c-.1-3.2-10.1-5.6-22.3-5.3-12.3.3-22.1 3.1-22.1 6.3l.5 25.4c-.1-3.2 9.8-6 22.1-6.3z"/><ellipse transform="rotate(-117.324 1229.179 153.25)" cx="1229.2" cy="153.3" rx="9.5" ry="2.5" opacity=".5"/><path d="M1231.4 152.1c2.4 4.7 3.4 9 2.2 9.6l9.7-5c1.2-.6.3-4.9-2.2-9.6-2.4-4.7-5.4-7.9-6.6-7.3l-9.7 5c1.2-.6 4.2 2.6 6.6 7.3z"/><ellipse transform="rotate(96.477 150.439 35.016)" cx="150.4" cy="35" rx="9.5" ry="2.5" opacity=".5"/><path d="M148 34.7c.6-5.2 2.2-9.3 3.5-9.2l-10.8-1.2c-1.4-.2-3 3.9-3.5 9.2-.6 5.2 0 9.6 1.4 9.7l10.8 1.2c-1.4-.1-2-4.4-1.4-9.7z"/><ellipse transform="rotate(-22.074 1100.664 251.439)" cx="1100.8" cy="251.4" rx="5.6" ry="1.5" opacity=".5"/><path d="M1101.3 252.8c-2.8 1.2-5.4 1.5-5.7.7l2.4 5.9c.3.7 2.9.4 5.7-.7 2.8-1.2 4.9-2.7 4.6-3.4l-2.4-5.9c.4.7-1.7 2.2-4.6 3.4z"/><ellipse transform="rotate(-22.074 362.26 87.756)" cx="362.3" cy="87.8" rx="3.5" ry=".9" opacity=".5"/><path d="M362.6 88.6c-1.8.7-3.4.9-3.6.5l1.5 3.7c.2.5 1.8.3 3.6-.5 1.8-.7 3.1-1.7 2.9-2.2l-1.5-3.7c.2.5-1.1 1.5-2.9 2.2z"/><ellipse transform="rotate(-94.828 .956 53.552) scale(1.00005)" cx="1" cy="53.6" rx="3.5" ry=".9" opacity=".5"/><path d="M1.9 53.5c.1 1.9-.1 3.5-.7 3.5l4-.3c.5 0 .8-1.6.6-3.6-.2-1.9-.7-3.4-1.2-3.4l-4 .3c.6 0 1.1 1.6 1.3 3.5z"/><ellipse transform="rotate(-94.828 1260.378 186.409) scale(1.00005)" cx="1260.4" cy="186.4" rx="3.5" ry=".9" opacity=".5"/><path d="M1261.3 186.4c.2 1.9-.1 3.5-.6 3.6l4-.3c.5 0 .8-1.6.6-3.6-.2-1.9-.7-3.4-1.2-3.4l-4 .3c.5-.1 1 1.4 1.2 3.4z"/><ellipse transform="rotate(28.498 1174.523 135.65)" cx="1174.4" cy="135.6" rx="3.5" ry=".9" opacity=".5"/><path d="M1174 136.4c-1.7-.9-2.9-2-2.6-2.5l-1.9 3.5c-.2.4.9 1.5 2.6 2.5s3.3 1.3 3.5.9l1.9-3.5c-.2.4-1.8.1-3.5-.9z"/><ellipse transform="rotate(-17.928 818.978 204.91)" cx="818.9" cy="204.9" rx="3.5" ry=".9" opacity=".5"/><path d="M819.2 205.8c-1.8.6-3.4.7-3.6.2l1.2 3.8c.2.5 1.8.4 3.6-.2s3.2-1.5 3-1.9l-1.2-3.8c.2.4-1.2 1.3-3 1.9z"/><ellipse transform="rotate(70.476 476.3 265.039)" cx="476.3" cy="265" rx="5.6" ry="1.5" opacity=".5"/><path d="M474.9 265.5c-1-2.9-1.2-5.5-.5-5.7l-6 2.1c-.8.3-.5 2.8.5 5.7s2.5 5 3.2 4.8l6-2.1c-.7.2-2.2-1.9-3.2-4.8z"/></g></svg>