<svg id="Layer_1" xmlns="http://www.w3.org/2000/svg" viewBox="0 0 74 41"><style>.st0{fill:#00adef}.st1{fill:#005c80}.stx{fill:#fff}</style><path class="st0" d="M72.5 36.8c0 1.5-1.2 2.7-2.6 2.7H4.1c-1.5 0-2.6-1.2-2.6-2.7V4.2c0-1.5 1.2-2.7 2.6-2.7h65.7c1.5 0 2.6 1.2 2.6 2.7v32.6zM74 4.2C74 1.9 72.1 0 69.8 0H4.1C1.9 0 0 1.9 0 4.2v32.6C0 39.1 1.9 41 4.1 41h65.7c2.3 0 4.2-1.9 4.2-4.2V4.2z"/><path class="st1" d="M4.7 4.5h1.7v8.9H4.7zM9 10.9c0 .7.6 1.1 1.2 1.1s1.2-.5 1.2-1.1c0-1-.8-1.3-1.6-1.5-.6-.2-1.1-.3-1.5-.8-.5-.4-.7-1.1-.7-1.7 0-1.5 1.2-2.5 2.6-2.5 1.4 0 2.6 1.1 2.6 2.5h-1.7c0-.6-.5-.9-1-.9s-.9.4-.9.9c0 .7.6.9 1.1 1.1.6.2 1.2.4 1.7.8.6.5.9 1.2.9 2 0 1.6-1.3 2.8-2.9 2.8-1.5 0-2.9-1.2-2.9-2.7H9zM22.9 9c0 2.6-2.1 4.6-4.7 4.6-2.5 0-4.7-2-4.7-4.6 0-2.6 2.1-4.7 4.7-4.7 2.6.1 4.7 2.1 4.7 4.7m-7.7 0c0 1.7 1.4 3.1 3 3.1s3-1.4 3-3.1c0-1.7-1.3-3-3-3-1.6 0-3 1.3-3 3zm10.9-4.5h1.1L23.3 15h-1.1zm3.4 1.6h-1.7V4.5h5v1.6h-1.7v7.3h-1.6zm5.1 4.8c0 .7.6 1.1 1.2 1.1s1.2-.5 1.2-1.1c0-1-.8-1.3-1.6-1.5-.6-.2-1.1-.4-1.6-.8-.4-.4-.7-1.1-.7-1.7 0-1.5 1.2-2.5 2.6-2.5 1.4 0 2.6 1.1 2.6 2.5h-1.7c0-.6-.5-.9-1-.9s-.9.4-.9.9c0 .7.6.9 1.1 1.1.6.2 1.2.4 1.7.8.6.5.9 1.2.9 2 0 1.6-1.3 2.8-2.9 2.8-1.5 0-2.9-1.2-2.9-2.7h2zm7.7-4.8h-1.1V4.5h2.7v8.9h-1.6zm7.6-1.6l-2 3h.4c.7 0 1.4.3 1.9.8.5.6.8 1.3.8 2.1 0 1.7-1.3 3.2-3.1 3.2s-3.1-1.4-3.1-3.2c0-.8.3-1.5.7-2.1L48 4.5h1.9zm-3.5 6c0 .9.6 1.6 1.5 1.6.8 0 1.5-.7 1.5-1.5 0-.9-.7-1.6-1.5-1.6s-1.5.7-1.5 1.5zm7.7 0h-.3c-1.6 0-2.8-1.3-2.8-2.9 0-1.8 1.3-3.2 3.1-3.2.8 0 1.7.3 2.3.9.6.6.8 1.4.8 2.3 0 .9-.3 1.6-.8 2.3L54 13.4h-1.9l2-2.9zm-1.5-3.1c0 .9.6 1.6 1.5 1.6.8 0 1.5-.7 1.5-1.5S54.9 6 54.1 6c-.8-.1-1.5.6-1.5 1.4zm8.5-2.9h1.4v6.1h.9v1.5h-.9v1.3h-1.6v-1.3H57v-1.3l4.1-6.3zm-.3 2.7l-2.1 3.4h2.1V7.2zm5.6 3.3h-.3c-1.6 0-2.8-1.3-2.8-2.9 0-1.8 1.3-3.2 3.1-3.2.8 0 1.7.3 2.3.9.6.6.8 1.4.8 2.3 0 .9-.3 1.6-.8 2.3l-2.4 3.6h-1.9l2-3zM65 7.4c0 .9.6 1.6 1.5 1.6.8 0 1.5-.7 1.5-1.6 0-.8-.7-1.5-1.5-1.5-.9 0-1.5.7-1.5 1.5z"/><path class="st0" d="M4.7 23.5H23v13.1H4.7z"/><path class="stx" d="M16.6 25.2l-.9 1.4-3.4 5.6-.3-.6.7-1.2-1.4-2.4H7.7l3.9 6.3c.3.4.8.7 1.5.7.8 0 1.3-.3 1.5-.7l5.6-9.1h-3.6z"/><path class="st1" d="M23.7 23.5h45.6v13.1H23.7z"/><path class="stx" d="M30.7 26.4h1.6L30 32.9h-1l-2.3-6.5h1.5l1.3 4zm2.2 0h1.5v6.4h-1.5zm6.2 6.4l-2.2-3.4v3.4h-1.4v-6.4h1.1l2.2 3.5v-3.5h1.5v6.4zm4.7-6.5c.7 0 1.4.1 1.9.3v1.5c-.9-.4-1.4-.4-1.9-.4-.9 0-1.2.8-1.2 2s.3 2 1.2 2c.5 0 1 0 1.9-.4v1.5c-.5.2-1.2.3-1.9.3-2 0-2.7-1.4-2.7-3.4 0-2.1.7-3.4 2.7-3.4M49 33c-2.2 0-2.5-1.7-2.5-3.4s.3-3.4 2.5-3.4 2.5 1.7 2.5 3.4S51.2 33 49 33m0-5.3c-.9 0-1.1.7-1.1 2s.1 2 1.1 2c.9 0 1.1-.7 1.1-2-.1-1.4-.2-2-1.1-2zm5.8.1v5h-1.5v-5h-1.5v-1.4h4.5v1.4zm5 0v5h-1.4v-5h-1.6v-1.4h4.6v1.4zm6.2 2.4h-2.5v1.2h2.7v1.4h-4.1v-6.4h4.1v1.4h-2.7v1H66zm-23 3.5h2.6V35H43z"/><path class="st0" d="M40.4 20c.6 0 .9-.2.9-.7l.8.1c-.1.8-.6 1.4-1.7 1.4-1.4 0-1.9-.9-1.9-2.3s.5-2.3 1.9-2.3c1.1 0 1.6.5 1.7 1.4l-.8.1c0-.5-.3-.7-.9-.7-.9 0-1.1.7-1.1 1.5s.2 1.5 1.1 1.5m5.6-3.7v.7h-2.4v1.1h2.1v.7h-2.1v1.1h2.5v.8h-3.3v-4.4zm1.6 4.4h-.8v-4.4h1.8c.8 0 1.5.3 1.5 1.3 0 .8-.4 1.1-.9 1.2l1.1 1.8h-.9l-1-1.7h-.8v1.8zm1.1-2.5c.3 0 .6-.1.6-.6s-.4-.6-.6-.6h-1.1v1.2h1.1zm4 2.5h-.8V17h-1.3v-.7H54v.7h-1.3zm1.9-4.4h.8v4.4h-.8zm2.5 4.4h-.8v-4.4h3v.7h-2.2v1.1h2v.7h-2zm2.9-4.4h.8v4.4H60zm4.9 0v.7h-2.4v1.1h2.1v.7h-2.1v1.1H65v.8h-3.2v-4.4zm.8 4.4v-4.4h1.6c1.3 0 2 .7 2 2.2 0 1.5-.7 2.2-2 2.2h-1.6zm1.6-.8c.9 0 1.2-.6 1.2-1.5s-.3-1.5-1.2-1.5h-.8v2.9h.8z"/></svg>