<svg id="Layer_1" xmlns="http://www.w3.org/2000/svg" viewBox="0 0 68 41"><style>.st0{fill:#00adef}.st1{fill:#fff}.st2{fill:#005c80}</style><path class="st0" d="M66.6 37.1c0 1.4-1.1 2.5-2.4 2.5H3.8c-1.3 0-2.4-1.1-2.4-2.5V3.9c0-1.4 1.1-2.5 2.4-2.5h60.4c1.3 0 2.4 1.1 2.4 2.5v33.2zM68 3.9C68 1.7 66.3 0 64.2 0H3.8C1.7 0 0 1.7 0 3.9v33.3C0 39.3 1.7 41 3.8 41h60.4c2.1 0 3.8-1.7 3.8-3.9V3.9z"/><path class="st0" d="M4.3 24.9h16.8V37H4.3z"/><path class="st1" d="M15.2 26.5l-.8 1.3-3.1 5.1-.3-.6.6-1.1-1.3-2.2H7l3.6 5.8c.2.4.7.7 1.4.7s1.2-.3 1.4-.7l5.2-8.4h-3.4z"/><path class="st2" d="M21.8 24.9h41.9V37H21.8z"/><path class="st1" d="M28.2 27.6h1.5l-2.2 5.9h-.9l-2.1-5.9H26l1.1 3.6zm2.1 0h1.4v5.9h-1.4zm5.6 5.9l-2-3.2v3.2h-1.3v-5.9h1l2.1 3.2v-3.2H37v5.9zm4.3-6.1c.7 0 1.3.1 1.7.3v1.4c-.8-.3-1.3-.4-1.7-.4-.8 0-1.1.7-1.1 1.8s.3 1.8 1.1 1.8c.4 0 .9 0 1.7-.4v1.4c-.4.2-1.1.3-1.7.3-1.8 0-2.4-1.3-2.4-3.1s.6-3.1 2.4-3.1m4.8 6.2c-2.1 0-2.3-1.6-2.3-3.1s.3-3.1 2.3-3.1c2.1 0 2.3 1.6 2.3 3.1 0 1.6-.3 3.1-2.3 3.1m0-4.9c-.8 0-1 .6-1 1.8 0 1.2.1 1.8 1 1.8.8 0 1-.6 1-1.8 0-1.2-.2-1.8-1-1.8zm5.3.2v4.6H49v-4.6h-1.4v-1.3h4.2v1.3zm4.7 0v4.6h-1.4v-4.6h-1.4v-1.3h4.2v1.3zm5.6 2.2h-2.2v1.1h2.5v1.3h-3.8v-5.9h3.8v1.3h-2.5v.9h2.2zm-21.1 3.2h2.4v1.2h-2.4z"/><path class="st2" d="M4.3 4.3h2.1v11.3H4.3zm5.7 8.2c0 .9.7 1.4 1.6 1.4.8 0 1.5-.6 1.5-1.4 0-1.2-1-1.6-2-1.9-.8-.2-1.4-.5-2-1-.6-.7-.9-1.5-.9-2.3 0-1.9 1.5-3.2 3.4-3.2 1.8 0 3.3 1.4 3.3 3.2h-2.2c0-.7-.6-1.2-1.3-1.2-.7 0-1.1.5-1.1 1.2 0 .8.8 1.2 1.4 1.4.8.3 1.6.5 2.2 1 .8.6 1.2 1.5 1.2 2.6 0 2-1.7 3.6-3.7 3.6-1.9 0-3.7-1.5-3.7-3.5H10zM27.9 10c0 3.3-2.7 5.9-5.9 5.9s-5.9-2.6-5.9-5.9c0-3.3 2.6-5.9 5.9-5.9 3.2 0 5.9 2.6 5.9 5.9m-9.8 0c0 2.1 1.7 3.9 3.8 3.9 2.1 0 3.8-1.8 3.8-3.9 0-2.1-1.7-3.9-3.8-3.9-2.1 0-3.8 1.8-3.8 3.9zm12.6-3.8h-1.5V4.3h3.5v11.3h-2zm8.4-1.9h1.7V12H42v1.9h-1.2v1.7h-2v-1.7h-4.9v-1.7l5.2-7.9zm-.3 3.4L36.1 12h2.7V7.7zm11.8 4.2c0 1-.2 2-.9 2.7-.7.8-1.8 1.2-2.8 1.2-1.1 0-2.1-.4-2.8-1.1-.9-.8-1-1.8-1-3V8.1c0-1 .2-2 .9-2.7.7-.8 1.8-1.2 2.9-1.2 1 0 2 .4 2.8 1.1.8.8 1 1.8 1 2.9v3.7zm-5.6-.1c0 .5 0 1.1.4 1.6.3.4.8.6 1.3.6s1-.2 1.4-.6c.4-.4.4-1 .4-1.5V8c0-1.1-.6-2-1.8-2-.5 0-1 .2-1.4.6-.2.5-.3 1-.3 1.5v3.7zm14.2.1c0 1-.2 2-.9 2.7-.7.8-1.8 1.2-2.8 1.2-1.1 0-2.1-.4-2.8-1.1-.9-.8-1-1.8-1-3V8.1c0-1 .2-2 .9-2.7.7-.8 1.8-1.2 2.9-1.2 1 0 2 .4 2.8 1.1.8.8 1 1.8 1 2.9v3.7zm-5.6-.1c0 .5 0 1.1.4 1.6.3.4.8.6 1.3.6s1-.2 1.4-.6c.4-.4.4-1 .4-1.5V8c0-1.1-.6-2-1.8-2-.5 0-1 .2-1.4.6-.3.4-.4.9-.4 1.4v3.8zm8.1-5.6h-1.4V4.3h3.5v11.3h-2.1z"/><path class="st0" d="M37.1 21.7c.5 0 .8-.2.9-.7l.7.1c-.1.8-.5 1.3-1.6 1.3-1.2 0-1.7-.8-1.7-2.1s.5-2.1 1.7-2.1c1 0 1.5.5 1.6 1.3H38c-.1-.5-.3-.7-.9-.7-.8 0-1 .7-1 1.4 0 .8.2 1.5 1 1.5m5.1-3.5v.7h-2.1v1H42v.6h-1.9v1.1h2.2v.7h-2.9v-4.1zm1.6 4.1H43v-4h1.7c.7 0 1.4.2 1.4 1.2 0 .7-.3 1-.8 1.1l1 1.7h-.8l-.9-1.6h-.7v1.6zm.9-2.3c.3 0 .6 0 .6-.5s-.3-.6-.6-.6h-1V20h1zm3.7 2.3h-.7v-3.4h-1.2v-.7h3.1v.7h-1.2zm1.8-4.1h.7v4h-.7zm2.3 4.1h-.7v-4.1h2.7v.7h-2v1h1.8v.6h-1.8zm2.7-4.1h.7v4h-.7zm4.4 0v.7h-2.1v1h1.9v.6h-1.9v1.1h2.2v.7h-2.9v-4.1zm.8 4.1v-4h1.4c1.2 0 1.9.6 1.9 2s-.6 2-1.9 2h-1.4zm1.4-.7c.8 0 1.1-.5 1.1-1.3s-.3-1.3-1.1-1.3h-.7v2.7h.7z"/></svg>