<svg id="Layer_1" xmlns="http://www.w3.org/2000/svg" viewBox="0 0 67 41"><style>.st0{fill:#00adef}.st1{fill:#fff}.st2{fill:#005c80}</style><path class="st0" d="M65.6 37.2c0 1.3-1.1 2.4-2.4 2.4H3.8c-1.3 0-2.4-1.1-2.4-2.4V3.8c0-1.3 1.1-2.4 2.4-2.4h59.5c1.3 0 2.4 1.1 2.4 2.4v33.4zM67 3.8C67 1.7 65.3 0 63.2 0H3.8C1.7 0 0 1.7 0 3.8v33.4C0 39.3 1.7 41 3.8 41h59.5c2.1 0 3.8-1.7 3.8-3.8V3.8z"/><path class="st0" d="M4.2 25.1h16.5V37H4.2z"/><path class="st1" d="M15 26.7l-.8 1.3-3 5-.3-.6.6-1.1-1.3-2.2H6.9l3.5 5.7c.2.4.7.7 1.4.7s1.2-.3 1.4-.7l5.1-8.3H15z"/><path class="st2" d="M21.5 25.1h41.3V37H21.5z"/><path class="st1" d="M27.8 27.8h1.4l-2.1 5.9h-.9l-2.1-5.9h1.5l1.1 3.6zm2 0h1.3v5.8h-1.3zm5.6 5.8l-2-3.1v3.1h-1.3v-5.8h1.1l2 3.1v-3.1h1.2v5.8zm4.2-6c.7 0 1.3.1 1.7.3v1.4c-.8-.3-1.3-.4-1.7-.4-.8 0-1.1.7-1.1 1.8s.3 1.8 1.1 1.8c.4 0 .9 0 1.7-.4v1.4c-.4.2-1 .3-1.7.3-1.8 0-2.4-1.2-2.4-3.1 0-1.8.6-3.1 2.4-3.1m4.7 6.1c-2 0-2.3-1.5-2.3-3.1 0-1.5.3-3 2.3-3 2 0 2.3 1.5 2.3 3 0 1.6-.2 3.1-2.3 3.1m0-4.8c-.8 0-1 .6-1 1.8 0 1.2.1 1.8 1 1.8.8 0 1-.6 1-1.8 0-1.2-.1-1.8-1-1.8zm5.3.2v4.5h-1.3v-4.5h-1.4v-1.3H51v1.3zm4.6 0v4.5h-1.4v-4.5h-1.4v-1.3h4.2v1.3zm5.5 2.1h-2.2v1.1H60v1.3h-3.8v-5.8H60v1.3h-2.5v.9h2.2zm-20.8 3.2h2.4v1.2h-2.4z"/><path class="st0" d="M36.6 22c.5 0 .8-.2.8-.7l.7.1c-.1.8-.5 1.3-1.6 1.3-1.2 0-1.7-.8-1.7-2.1 0-1.2.5-2.1 1.7-2.1 1 0 1.5.5 1.6 1.3l-.7.1c-.1-.5-.3-.7-.8-.7-.8 0-1 .7-1 1.4s.2 1.4 1 1.4m5-3.4v.7h-2.1v.9h1.9v.7h-1.9v1h2.2v.7h-2.9v-4zm1.5 4h-.7v-4H44c.7 0 1.4.2 1.4 1.2 0 .7-.3 1-.8 1.1l1 1.6h-.8l-1-1.5h-.7v1.6zm1-2.3c.2 0 .6 0 .6-.5s-.3-.5-.6-.5h-1v1.1h1zm3.6 2.3H47v-3.3h-1.2v-.7h3.1v.7h-1.2zm1.7-4h.7v4h-.7zm2.3 4H51v-4h2.7v.7h-2v.9h1.8v.7h-1.8zm2.7-4h.7v4h-.7zm4.3 0v.7h-2.1v.9h1.9v.7h-1.9v1h2.2v.7h-2.9v-4zm.8 4v-4h1.4c1.2 0 1.8.6 1.8 2s-.6 2-1.8 2h-1.4zm1.4-.7c.8 0 1.1-.5 1.1-1.3s-.3-1.3-1.1-1.3h-.7v2.6h.7z"/><path class="st2" d="M4.3 4h2.2v12.1H4.3zm6 8.7c0 1 .8 1.5 1.7 1.5.9 0 1.6-.6 1.6-1.5 0-1.3-1.1-1.7-2.1-2-.8-.3-1.5-.5-2.1-1.1-.6-.6-1-1.5-1-2.3 0-2 1.6-3.4 3.6-3.4 1.9 0 3.6 1.5 3.5 3.4h-2.3c0-.8-.7-1.3-1.4-1.3s-1.2.6-1.2 1.3c0 .9.8 1.2 1.5 1.5.9.3 1.7.5 2.4 1.1.9.7 1.3 1.6 1.3 2.7 0 2.2-1.8 3.8-3.9 3.8-2.1 0-3.9-1.6-3.9-3.7h2.3zm19.1-2.6c0 3.5-2.9 6.3-6.3 6.3s-6.3-2.8-6.3-6.3 2.8-6.3 6.3-6.3 6.3 2.8 6.3 6.3m-10.4 0c0 2.2 1.9 4.1 4.1 4.1 2.2 0 4.1-1.9 4.1-4.1 0-2.3-1.8-4.1-4.1-4.1S19 7.8 19 10.1zM35.6 12h-.4c-2.2 0-3.7-1.8-3.7-3.9 0-2.4 1.7-4.3 4.2-4.3 1.1 0 2.2.5 3 1.3.8.9 1.1 1.9 1.1 3.1 0 1.3-.5 2.1-1.1 3.1l-3.2 4.8h-2.6l2.7-4.1zm-2-4.1c0 1.2.8 2.1 2 2.1 1.1 0 2-1 2-2.1s-.9-2-2-2-2 1-2 2zm15.3 4.2c0 1.1-.2 2.1-.9 2.9-.8.8-1.9 1.3-3 1.3s-2.2-.4-3-1.2c-.9-.9-1.1-2-1.1-3.2V8c0-1.1.2-2.1.9-2.9.8-.9 2-1.3 3.1-1.3s2.2.4 2.9 1.2c.9.8 1.1 1.9 1.1 3.1v4zm-6-.1c0 .6 0 1.2.4 1.6.3.4.9.6 1.4.6.6 0 1.1-.2 1.5-.7.4-.5.4-1 .4-1.6V8c0-1.2-.7-2.1-1.9-2.1-.5 0-1.1.3-1.4.7-.3.4-.4.9-.4 1.5V12zm15.2.1c0 1.1-.2 2.1-1 2.9-.8.8-1.9 1.3-3 1.3s-2.2-.4-3-1.2c-.9-.9-1.1-2-1.1-3.2V8c0-1.1.2-2.1.9-2.9.8-.9 2-1.3 3.1-1.3s2.2.4 2.9 1.2c.9.8 1.1 1.9 1.1 3.1v4zm-5.9-.1c0 .6 0 1.2.4 1.6.3.4.9.6 1.4.6.6 0 1.1-.2 1.5-.7.4-.5.4-1 .4-1.6V8c0-1.2-.7-2.1-1.9-2.1-.5 0-1.1.3-1.4.7-.3.5-.4.9-.4 1.5V12zm8.3-5.9H59V4h3.7v12.1h-2.2z"/></svg>