<svg id="Layer_1" xmlns="http://www.w3.org/2000/svg" viewBox="0 0 265 80"><style>.st0{fill:#035d81}.st1{fill-rule:evenodd;clip-rule:evenodd;fill:#ec2227}.st2{fill:#1a1a1a}</style><path class="st0" d="M98.8 79.4c.1-.8.1-1.7.2-2.7 0-1 .1-2.1.1-3.5 0-1.3 0-2.4-.1-3.4 0-1-.1-1.9-.2-2.8.4 0 .6 0 .6.1h3.6c1.4 0 2.5.3 3.1.8.7.5 1 1.3 1 2.5 0 1.3-.4 2.2-1.2 2.9-.8.6-2.1.9-3.8.9h-.6v4c0 .2 0 .4.1.6 0 .2 0 .5.1.8-.3 0-.6 0-.8-.1h-1.4c-.1-.2-.4-.2-.7-.1m2.9-6.4c1 0 1.7-.2 2.1-.6.4-.4.6-1.1.6-2.1 0-.8-.2-1.4-.5-1.8-.3-.4-.8-.6-1.5-.6h-.6c0 .5-.1.8-.1 1V73zm-19.9 6.4c.2-1.2.3-2 .4-2.4.1-.7.2-1.2.2-1.4l1.2-8.6c.1 0 .2 0 .4.1h.8c.2 0 .3 0 .4-.1.4 1 .8 1.8 1.1 2.4.3.7.6 1.3.9 1.9.6 1.3 1.4 2.7 2.2 4.2.2-.4.4-.8.6-1.1.1-.3.3-.6.5-1s.4-.7.5-1c.1-.3.3-.6.5-1 .8-1.7 1.5-3.1 2-4.4.2 0 .3 0 .4.1h.8c.1 0 .3 0 .4-.1l1 8.7c.1 1.1.2 1.9.3 2.3l.3 1.5c-.1 0-.4 0-.8-.1h-1.4c-.2 0-.5 0-.8.1v-.2c0-1.1-.1-1.9-.1-2.4L93 71l-.9 1.8c-.4.8-.8 1.5-1.1 2.2-.6 1.2-1.3 2.7-2.1 4.3h-.8c-.6-1.2-1.2-2.6-2.1-4.2 0 0-.2-.3-.5-1l-.6-1.2c-.1-.1-.2-.4-.4-.7-.2-.4-.4-.7-.5-.9l-.4 3.8v.1c-.2 2-.3 3.3-.3 4.1h-1c-.2 0-.4 0-.5.1zm-15-6c0-1 .2-2 .5-2.8.3-.8.8-1.5 1.4-2.1 1.2-1.2 3-1.7 5.2-1.8 2.1 0 3.8.6 4.9 1.7 1.2 1.1 1.7 2.7 1.7 4.8 0 2-.6 3.5-1.9 4.7-1.2 1.2-2.9 1.7-5 1.7-.7 0-1.4-.1-2-.2-.6-.1-1.2-.3-1.7-.5s-1-.5-1.4-.9c-.6-.6-1-1.2-1.3-2-.3-.8-.4-1.6-.4-2.6zm2.9-.2c0 1.7.3 3 1 4s1.7 1.4 2.9 1.4c.6 0 1.2-.1 1.6-.4.5-.2.9-.6 1.2-1.1.7-1 1-2.3 1.1-4 0-1.7-.4-3-1.1-4-.2-.3-.5-.6-.8-.8-.3-.2-.6-.4-.9-.5-.3-.1-.7-.2-1.1-.2-1.2 0-2.2.5-2.9 1.4-.7 1.2-1 2.5-1 4.2zm-4.4-3.4H65c-.2-.6-.6-1.1-1.2-1.5-.6-.4-1.3-.5-2.2-.5-1.3 0-2.3.5-3.1 1.4-.7.9-1.1 2.2-1.1 3.9 0 1.8.4 3.2 1.1 4.1.7.9 1.8 1.4 3.2 1.4.6 0 1.2-.1 1.8-.3.6-.2 1.2-.6 1.7-1l.2.1-.4 1.5c-.6.3-1.3.5-1.8.6-.6.1-1.3.2-2 .2-2.1 0-3.8-.6-5-1.7-.3-.3-.6-.6-.8-.9-.2-.3-.4-.7-.6-1.1-.2-.4-.3-.8-.3-1.3-.1-.4-.1-.9-.1-1.4 0-1.9.6-3.5 1.9-4.7.4-.4.9-.7 1.4-1 .5-.3 1.1-.5 1.7-.6.6-.1 1.3-.2 2-.2s1.4.1 2 .2c.7.2 1.4.4 2 .7-.1.3-.2.7-.3 1.1 0 .3-.1.5-.1.6.4 0 .4.2.3.4zm-16.8 6.1V74H53v1.9h-4.5zm-15.6-2.5c0-1 .2-2 .5-2.8.3-.8.8-1.5 1.4-2.1 1.2-1.2 3-1.7 5.2-1.8 2.1 0 3.8.6 4.9 1.7 1.2 1.1 1.7 2.7 1.7 4.8 0 2-.6 3.5-1.9 4.7-1.2 1.2-2.9 1.7-5 1.7-.7 0-1.4-.1-2-.2-.6-.1-1.2-.3-1.7-.5s-1-.5-1.4-.9c-.6-.6-1-1.2-1.3-2-.2-.8-.3-1.6-.4-2.6zm3-.2c0 1.7.3 3 1 4s1.7 1.4 2.9 1.4c.6 0 1.2-.1 1.6-.4.5-.2.9-.6 1.2-1.1.7-1 1-2.3 1.1-4 0-1.7-.4-3-1.1-4-.2-.3-.5-.6-.8-.8-.3-.2-.6-.4-.9-.5-.3-.1-.7-.2-1.1-.2-1.2 0-2.2.5-2.9 1.4-.7 1.2-1 2.5-1 4.2zM20 79.4c.1-1.1.1-2 .2-2.8 0-1 .1-2.1.1-3.3 0-1.1 0-2.2-.1-3.3v-2.2c0-.3 0-.6-.1-.8h1.4c.3 0 .4 0 .5-.1 2.1 2.3 3.3 3.7 3.8 4.2 1.2 1.3 2.5 2.7 3.8 4.2v-4.4c0-1.1 0-2.4-.1-3.9.1 0 .2 0 .3.1h1.1c-.1.5-.1 1.3-.1 2.4v8.4c0 .6.1 1.1.1 1.5h-1.2c-.1 0-.3 0-.4.1-1.3-1.5-2.6-2.9-3.6-4.1-.3-.4-.7-.8-1.1-1.2-.4-.4-.7-.7-.9-1-.2-.3-.7-.7-1.3-1.4-.6-.7-.9-1-1-1v6.5c0 .6 0 1.3.1 2.1-.2 0-.4 0-.4-.1h-.8s-.1 0-.3.1zm-13.5 0c.1-1.1.1-2 .2-2.8 0-1 .1-2.1.1-3.3 0-1.1 0-2.2-.1-3.3v-2.2c0-.3 0-.6-.1-.8H8c.3 0 .4 0 .5-.1 2.1 2.3 3.3 3.7 3.8 4.2 1.2 1.3 2.5 2.7 3.8 4.2v-4.4c0-1.1 0-2.4-.1-3.9.1 0 .2 0 .3.1h1.1c-.1.5-.1 1.3-.1 2.4v8.4c0 .6.1 1.1.1 1.5h-1.2c-.1 0-.3 0-.4.1-1.3-1.5-2.6-2.9-3.6-4.1-.3-.4-.7-.8-1.1-1.2-.4-.4-.7-.7-.9-1-.2-.3-.7-.7-1.3-1.4-.6-.7-.9-1-1-1v6.5c0 .6 0 1.3.1 2.1-.2 0-.4 0-.4-.1h-.8s-.1 0-.3.1zm-5.7 0c.1-.6.1-1.4.1-2.6.1-.9.1-2.1.1-3.6 0-1.4 0-2.6-.1-3.6 0-.9-.1-1.8-.1-2.6H4c-.1.7-.1 1.6-.2 2.6v7.2c0 1 .1 1.8.2 2.5-.3 0-.5 0-.8-.1H1.8c-.4.1-.6.1-1 .2z"/><path class="st1" d="M75.1.1h-5.3c-.1 0-.3.1-.3.2l.6 5.1c0 .2.3.4.5.4h5.6c.1 0 .3-.1.3-.2L75.6.5c0-.3-.3-.4-.5-.4m1.1 6.7h-5.6c-.2 0-.4.1-.3.3l.6 5.7c0 .3.3.4.6.4h5.9c.2 0 .4-.1.3-.3-.3-1.9-.6-3.8-1-5.7 0-.3-.3-.4-.5-.4zm1.2 7.4h-5.9c-.2 0-.4.1-.4.4.2 2.1.5 4.3.7 6.4 0 .3.3.5.6.5h6.3c.3 0 .4-.2.4-.4-.4-2.1-.7-4.3-1.1-6.4 0-.3-.3-.5-.6-.5zm1.3 8.3h-6.3c-.3 0-.4.2-.4.5.3 2.4.5 4.8.8 7.2 0 .3.3.7.7.7h6.7c.3 0 .5-.3.4-.5l-1.2-7.2c0-.4-.3-.7-.7-.7zm1.6 9.3h-6.7c-.3 0-.5.3-.5.6.3 2.7.6 5.4.9 8.2 0 .4.4.8.8.8h7.1c.4 0 .5-.4.5-.7-.5-2.7-.9-5.4-1.4-8.2 0-.3-.4-.7-.7-.7zM82 42.5h-7.1c-.4 0-.6.4-.5.7.4 3.1.7 6.2 1.1 9.4 0 .4.4 1 .9 1H84c.4 0 .6-.5.5-.9-.5-3.1-1-6.2-1.6-9.4-.1-.4-.5-.8-.9-.8zM68 .1h-5.3c-.1 0-.3.1-.3.2l.3 5.1c0 .2.3.3.5.3h5.6c.2 0 .4-.1.3-.3L68.5.3c0-.1-.3-.2-.5-.2zm.7 6.6h-5.6c-.2 0-.4.1-.4.3l.3 5.7c0 .2.3.4.5.4h5.9c.2 0 .4-.1.4-.3l-.6-5.7c0-.2-.3-.4-.5-.4zm.8 7.5h-5.9c-.2 0-.4.2-.4.4.1 2.1.2 4.3.4 6.4 0 .3.3.5.6.5h6.3c.3 0 .4-.2.4-.4-.2-2.1-.5-4.3-.7-6.4-.1-.4-.4-.5-.7-.5zm.9 8.3h-6.3c-.3 0-.5.2-.5.5.1 2.4.3 4.8.4 7.2 0 .3.3.6.6.6h6.7c.3 0 .5-.3.5-.6-.3-2.4-.5-4.8-.8-7.2 0-.3-.3-.5-.6-.5zm1 9.3h-6.7c-.3 0-.5.3-.5.6.2 2.7.3 5.5.5 8.2 0 .4.3.8.7.8h7.1c.4 0 .6-.4.5-.7-.3-2.7-.6-5.4-.9-8.2-.1-.3-.4-.7-.7-.7zm1.1 10.6h-7.2c-.4 0-.6.4-.6.7.2 3.1.3 6.2.5 9.4 0 .4.3 1 .8 1h7.7c.5 0 .6-.5.6-.9-.4-3.1-.7-6.2-1-9.4-.1-.3-.4-.8-.8-.8zM60.9 0h-5.7c-.2 0-.4.1-.4.3v5c0 .2.3.4.5.4h6c.2 0 .4-.1.4-.3-.1-1.7-.2-3.4-.3-5-.1-.2-.3-.4-.5-.4zm.3 6.7h-6c-.2 0-.5.1-.5.4v5.6c0 .3.3.4.5.4h6.3c.2 0 .5-.2.5-.4-.1-1.9-.2-3.7-.3-5.6 0-.2-.3-.4-.5-.4zm.4 7.4h-6.3c-.3 0-.5.2-.5.5v6.3c0 .3.3.5.6.6h6.7c.3 0 .5-.2.5-.5l-.3-6.3c-.2-.4-.5-.6-.7-.6zm.4 8.3h-6.7c-.3 0-.6.3-.6.6v7.1c0 .4.3.7.6.7h7.1c.4 0 .6-.3.6-.7-.1-2.4-.3-4.7-.4-7.1 0-.3-.3-.6-.6-.6zm.4 9.4h-7.1c-.4 0-.6.3-.7.7v8c0 .4.3.8.7.8h7.6c.4 0 .7-.4.7-.8-.1-2.7-.3-5.4-.4-8-.1-.3-.4-.7-.8-.7zm.5 10.6h-7.6c-.5 0-.7.5-.7.9v9.2c0 .4.3 1 .8 1h8.2c.5 0 .7-.6.7-1-.2-3.1-.3-6.1-.5-9.2-.1-.4-.4-.9-.9-.9zm20.8 12.4h-7.3c-.5 0-.7.6-.6 1 0 .4.1.8.1 1.2.1.5.4 1.1 1 1.1h7.5c.5 0 .6-.6.6-1-.1-.4-.1-.8-.2-1.2-.2-.5-.6-1.1-1.1-1.1zm-10 0h-7.4c-.5 0-.7.6-.7 1s0 .8.1 1.2c0 .5.4 1.1.9 1.1h7.5c.5 0 .7-.6.7-1s-.1-.8-.1-1.2c-.1-.5-.5-1.1-1-1.1zm-10.1 0h-8.4c-.5 0-.5.6-.5 1V57c0 .3.1 1.1.5 1.1h8.6c.5 0 .8-.6.7-1.1 0-.4 0-.8-.1-1.2.1-.4-.2-1-.8-1zm35-27.3h-4c-.3 0-.4.3-.4.5l1.2 4.5c.1.4.5.8 1 .8h4.2c.4 0 .4-.3.3-.6-.4-1.5-.9-3-1.3-4.5-.1-.3-.6-.7-1-.7zm-6.3 0h-4c-.3 0-.5.3-.4.5.3 1.5.6 3 1 4.5.1.4.5.8.9.8H94c.4 0 .5-.3.4-.6-.4-1.5-.8-3-1.1-4.5-.2-.4-.6-.7-1-.7zm-6.4 0h-4c-.3 0-.5.3-.4.6.3 1.5.5 3 .8 4.5.1.4.4.8.9.8h4.2c.4 0 .5-.3.4-.6-.3-1.5-.6-3-1-4.5-.1-.5-.5-.8-.9-.8zm14.7 6.8h-4.2c-.4 0-.5.3-.4.6.4 1.7.8 3.3 1.3 5 .1.4.6.9 1 .9h4.4c.4 0 .4-.4.4-.7-.5-1.7-1-3.3-1.5-5-.1-.3-.6-.8-1-.8zm-6.6 0h-4.2c-.4 0-.5.3-.4.6.4 1.7.7 3.3 1.1 5 .1.4.5.9 1 .9h4.4c.4 0 .5-.4.4-.7-.4-1.7-.8-3.3-1.3-5-.2-.4-.6-.8-1-.8zm-6.7 0h-4.2c-.4 0-.5.3-.5.7.3 1.7.6 3.3.8 5 .1.4.5.9.9.9h4.4c.4 0 .5-.4.5-.7-.3-1.7-.7-3.3-1-5-.1-.5-.5-.9-.9-.9zm15.4 7.5h-4.4c-.4 0-.5.4-.4.7.5 1.8.9 3.6 1.4 5.4.1.5.6 1.1 1.1 1.1h4.6c.5 0 .5-.5.4-.8-.5-1.8-1.1-3.6-1.6-5.4-.1-.5-.6-1-1.1-1zm-6.9 0h-4.4c-.4 0-.5.4-.5.8l1.2 5.4c.1.5.5 1 1.1 1h4.6c.5 0 .5-.5.4-.9-.5-1.8-.9-3.6-1.4-5.4-.1-.4-.5-.9-1-.9zm-7 0h-4.4c-.4 0-.6.4-.5.8.3 1.8.6 3.6.9 5.5.1.5.5 1 1 1h4.6c.5 0 .6-.5.5-.9l-1.2-5.4c0-.5-.4-1-.9-1zm16.3 8.2h-4.6c-.5 0-.5.5-.4.9l1.5 6c.1.5.6 1.2 1.2 1.2h4.8c.5 0 .5-.6.4-1l-1.8-6c-.1-.5-.6-1.1-1.1-1.1zm-7.3 0h-4.6c-.5 0-.6.5-.5.9.4 2 .9 4 1.3 6 .1.5.6 1.2 1.1 1.2h4.9c.5 0 .6-.6.5-1l-1.5-6c-.2-.5-.7-1.1-1.2-1.1zm-7.3 0h-4.6c-.5 0-.6.5-.5.9.3 2 .7 4 1 6 .1.5.5 1.2 1.1 1.2h4.9c.5 0 .6-.6.5-1-.4-2-.8-4-1.3-6-.1-.5-.6-1.1-1.1-1.1zM33 .1c-.2 0-.5.1-.5.3l-.9 5.1c0 .2.2.2.3.2h5.6c.2 0 .5-.1.5-.4l.6-5.1c0-.2-.2-.2-.3-.2-1.8.1-3.5.1-5.3.1zm-1.1 6.7c-.2 0-.5.2-.6.4-.3 1.9-.6 3.8-1 5.7 0 .2.1.3.3.3h5.9c.2 0 .5-.2.6-.4l.6-5.7c0-.2-.2-.3-.3-.3h-5.5zm-1.2 7.4c-.3 0-.6.2-.6.5-.4 2.1-.7 4.3-1.1 6.4 0 .3.1.4.4.4h6.3c.3 0 .6-.2.6-.5.2-2.1.5-4.3.7-6.4 0-.2-.2-.4-.4-.4h-5.9zm-1.3 8.3c-.3 0-.6.3-.7.6l-1.2 7.2c0 .3.1.5.4.5h6.7c.4 0 .7-.3.7-.7.3-2.4.5-4.8.8-7.2 0-.3-.2-.5-.4-.5-2.1.1-4.2.1-6.3.1zm-1.6 9.3c-.4 0-.7.4-.8.7-.5 2.7-.9 5.4-1.4 8.2-.1.3.1.7.5.7h7.1c.4 0 .7-.4.8-.8.3-2.7.6-5.4.9-8.2 0-.3-.1-.6-.5-.6h-6.6zm-1.7 10.7c-.4 0-.8.5-.9.8-.5 3.1-1 6.2-1.6 9.4-.1.4.1.9.5.9h7.6c.5 0 .8-.6.9-1 .4-3.1.7-6.2 1.1-9.4 0-.3-.1-.7-.5-.7h-7.1zM40.1.1c-.2 0-.4.1-.5.3L39 5.5c0 .2.2.3.3.3h5.6c.2 0 .5-.1.5-.3l.3-5.1c0-.2-.2-.2-.3-.2-1.8-.2-3.5-.1-5.3-.1zm-.7 6.6c-.2 0-.5.2-.5.4l-.6 5.7c0 .2.2.3.4.3h5.9c.2 0 .5-.2.5-.4l.3-5.7c0-.2-.2-.3-.4-.3h-5.6zm-.8 7.5c-.3 0-.5.2-.6.5-.2 2.1-.5 4.3-.7 6.4 0 .3.2.4.4.4H44c.3 0 .6-.2.6-.5.1-2.1.2-4.3.4-6.4 0-.2-.2-.4-.4-.4-2-.1-4-.1-6 0zm-.9 8.3c-.3 0-.6.3-.6.6-.3 2.4-.5 4.8-.8 7.2 0 .3.2.6.5.6h6.7c.3 0 .6-.3.6-.6.1-2.4.3-4.8.4-7.2 0-.3-.2-.5-.5-.5-2.1-.2-4.2-.2-6.3-.1zm-1 9.3c-.4 0-.7.3-.7.7-.3 2.7-.6 5.4-.9 8.2 0 .3.1.7.5.7h7.1c.4 0 .7-.4.7-.8.2-2.7.3-5.5.5-8.2 0-.3-.2-.6-.5-.6h-6.7zm-1.1 10.6c-.4 0-.7.4-.8.8-.3 3.1-.7 6.2-1 9.4 0 .4.1.9.6.9h7.7c.5 0 .8-.6.8-1 .2-3.1.4-6.2.5-9.4 0-.3-.2-.8-.6-.7h-7.2zM47.2 0c-.2 0-.5.1-.5.3-.1 1.7-.2 3.4-.3 5 0 .2.2.3.4.3h6c.2 0 .5-.1.5-.4v-5c0-.2-.3-.3-.4-.3-1.9.1-3.8.1-5.7.1zm-.3 6.7c-.2 0-.5.2-.5.4-.1 1.9-.2 3.7-.3 5.6 0 .3.2.4.5.4h6.3c.3 0 .5-.2.5-.4V7.1c0-.2-.3-.4-.5-.4h-6zm-.3 7.4c-.3 0-.6.2-.6.5l-.3 6.3c0 .3.2.5.5.5h6.7c.3 0 .6-.2.6-.6v-6.3c0-.3-.3-.5-.5-.5-2.2.1-4.3.1-6.4.1zm-.4 8.3c-.3 0-.6.3-.6.6-.1 2.4-.3 4.7-.4 7.1 0 .3.2.7.6.7h7.1c.4 0 .6-.3.6-.7V23c0-.3-.3-.6-.6-.6h-6.7zm-.5 9.4c-.4 0-.7.4-.7.7-.1 2.7-.3 5.4-.4 8 0 .4.2.8.7.8h7.6c.4 0 .7-.4.7-.8v-8c0-.4-.3-.7-.7-.7h-7.2zm-.5 10.6c-.5 0-.8.5-.8.9-.2 3.1-.3 6.1-.5 9.2 0 .4.2 1 .7 1h8.2c.5 0 .8-.6.8-1v-9.2c0-.4-.3-.9-.7-.9h-7.7zM24.4 54.8c-.5 0-1 .6-1 1.1-.1.4-.1.8-.2 1.2-.1.4.1 1 .6 1h7.5c.6 0 .9-.6 1-1.1 0-.4.1-.8.1-1.2 0-.4-.1-1-.6-1h-7.4zm10 0c-.5 0-.9.6-1 1.1 0 .4-.1.8-.1 1.2 0 .4.1 1 .7 1h7.5c.5 0 .9-.6.9-1.1 0-.4 0-.8.1-1.2 0-.4-.2-1-.7-1h-7.4zm10.1 0c-.5 0-.9.6-.9 1.1 0 .4 0 .8-.1 1.2 0 .4.2 1.1.7 1.1h8.6c.5 0 .5-.7.5-1.1v-1.2c0-.3 0-1-.5-1-2.7-.1-5.5-.1-8.3-.1zm-35-27.3c-.4 0-.8.4-.9.8-.4 1.5-.9 3-1.3 4.5-.1.3 0 .6.3.6h4.2c.4 0 .9-.4 1-.8l1.2-4.5c.1-.3 0-.5-.4-.5-1.5-.1-2.8-.1-4.1-.1zm6.3 0c-.4 0-.8.4-.9.7-.4 1.5-.8 3-1.1 4.5-.1.3 0 .6.4.6h4.2c.4 0 .8-.4.9-.8.3-1.5.6-3 1-4.5.1-.3-.1-.5-.4-.5h-4.1zm6.4 0c-.4 0-.8.3-.8.7-.3 1.5-.6 3-1 4.5-.1.3.1.6.4.6H25c.4 0 .8-.4.9-.8.3-1.5.5-3 .8-4.5.1-.3-.1-.6-.4-.6-1.4 0-2.7.1-4.1.1zM7.5 34.3c-.4 0-.9.4-1 .8-.5 1.7-1 3.3-1.5 5-.1.3 0 .7.4.7h4.4c.5 0 .9-.5 1-.9.4-1.7.8-3.3 1.3-5 .1-.3 0-.6-.4-.6H7.5zm6.7 0c-.4 0-.9.4-1 .8-.4 1.7-.8 3.3-1.3 5-.1.3 0 .7.4.7h4.4c.5 0 .9-.5 1-.9.4-1.7.7-3.3 1.1-5 .1-.3-.1-.6-.4-.6h-4.2zm6.6 0c-.4 0-.8.4-.9.8-.3 1.7-.7 3.3-1 5-.1.3.1.7.5.7h4.4c.5 0 .9-.5.9-.9.3-1.7.6-3.3.8-5 .1-.3-.1-.7-.5-.7-1.4.1-2.8.1-4.2.1zM5.4 41.8c-.5 0-1 .5-1.1 1-.5 1.8-1.1 3.6-1.6 5.4-.1.3-.1.8.3.8h4.6c.5 0 1-.6 1.1-1.1.5-1.8.9-3.6 1.4-5.4.1-.3 0-.7-.4-.7H5.4zm6.9 0c-.5 0-.9.5-1 .9-.5 1.8-.9 3.6-1.4 5.4-.1.3 0 .9.4.9h4.6c.5 0 1-.6 1.1-1l1.2-5.4c.1-.3 0-.8-.4-.8h-4.5zm7 0c-.5 0-.9.5-1 .9l-1.2 5.4c-.1.4 0 .9.5.9h4.6c.5 0 .9-.6 1-1 .3-1.8.6-3.6.9-5.5.1-.4-.1-.8-.5-.8-1.4.1-2.8.1-4.3.1zM3 50c-.5 0-1 .6-1.2 1.1l-1.8 6c-.1.3-.1 1 .4 1h4.8c.6 0 1.1-.7 1.2-1.2l1.5-6c.1-.3 0-.9-.4-.9H3zm7.3 0c-.5 0-1 .6-1.1 1.1l-1.5 6c-.1.4 0 1 .5 1h4.9c.6 0 1-.7 1.1-1.2.4-2 .9-4 1.3-6 .1-.4 0-.9-.5-.9h-4.7zm7.3 0c-.5 0-1 .6-1.1 1-.4 2-.8 4-1.3 6-.1.4 0 1 .5 1h4.9c.6 0 1-.7 1.1-1.2.3-2 .7-4 1-6 .1-.4-.1-.9-.5-.9-1.5.1-3 .1-4.6.1z"/><path class="st2" d="M146.7 41.4c3.8 0 6.1 1.8 6.1 5.1v1.2c0 2-.9 3.4-2.3 4.1l2.7 5.5h-4.9l-2-4.6H145v4.6h-4.5V41.4h6.2zm-1.6 3.4v4.5h1.6c1 0 1.7-.6 1.7-1.5v-1.5c0-.9-.6-1.5-1.7-1.5h-1.6zm10.1-3.4h10.4v3.7h-5.9v2.5h5.6V51h-5.6v2.5h6.1v3.7h-10.6V41.4zm12.8 0h6.1c4 0 6.3 1.9 6.3 5.3v5.5c0 3.5-2.4 5.1-6.3 5.1H168V41.4zm7.9 6.2c0-1.2-.2-2.8-1.9-2.8h-1.5v9h1.5c1.2 0 1.9-.6 1.9-1.6v-4.6zm6.9-6.2h10.4v3.7h-5.9v2.5h5.6V51h-5.6v2.5h6.1v3.7h-10.6V41.4zm12.8 0h10.5V45h-5.9v2.5h5.7v3.6h-5.7v6.2h-4.5V41.4zm17 15.9h-4.5V41.4h4.5v15.9zm7-8.6v8.5h-4.4V41.4h4.4l4.2 8.5v-8.5h4.4v15.9h-4.4l-4.2-8.6zm15.8 8.6h-4.5V41.4h4.5v15.9zm7-8.6v8.5H238V41.4h4.4l4.2 8.5v-8.5h4.4v15.9h-4.4l-4.2-8.6zm22.6 7.9c-1.2.4-3.2.9-5.3.9-3.7 0-6.3-1.9-6.3-5.6v-5c0-3.8 2.9-5.8 7-5.8 2 0 3.6.4 4.3.7l-.6 3.5c-.6-.2-1.8-.5-3.2-.5-1.8 0-2.9.8-2.9 2.3v4.7c0 1.4.8 2 2.2 2 .4 0 .7 0 1-.1V49h3.9v7.6zM143.4 67.5h-3.8v-3.6h12.1v3.6h-3.8v12.2h-4.5V67.5zm16.4-3.6c3.8 0 6.1 1.8 6.1 5.1v1.2c0 2-.9 3.4-2.3 4.1l2.7 5.5h-4.9l-2-4.6h-1.3v4.6h-4.5V63.9h6.2zm-1.6 3.5v4.5h1.6c1 0 1.7-.6 1.7-1.5v-1.5c0-.9-.6-1.5-1.7-1.5h-1.6zm22.4-3.5v10.9c0 3.3-2.2 5.2-6.3 5.2-4 0-6.3-1.9-6.3-5.2V63.9h4.5v10.9c0 .9.7 1.6 1.7 1.6 1.1 0 1.7-.6 1.7-1.6V63.9h4.7zm7.1 16.1c-2.3 0-4.3-.4-5.3-.8l.6-3.6c.8.2 2.4.6 3.9.6 1.3 0 2.2-.2 2.2-1.1 0-1.2-1.2-1-4.1-2.2-1.6-.7-2.5-1.9-2.5-4.1 0-3 2-5.1 5.8-5.1 2.3 0 4 .4 4.6.6l-.5 3.7c-.8-.2-2.3-.5-3.5-.5-1.3 0-2.1.4-2.1 1.2 0 .7.4 1 1.4 1.3l1.6.5c2.4.8 3.6 1.9 3.6 4.6.1 3-1.5 4.9-5.7 4.9zm10.9-12.5h-3.8v-3.6h12.1v3.6h-3.8v12.2h-4.5V67.5z"/></svg>