<svg id="Layer_1" xmlns="http://www.w3.org/2000/svg" viewBox="0 0 65 48"><style>.st0,.st1{fill:#fff}.st1{fill-rule:evenodd;clip-rule:evenodd}</style><path class="st0" d="M59.4 47.9c0-.5.1-1 .1-1.6v-4.2c0-.6-.1-1.2-.1-1.7H62c.9 0 1.5.2 1.9.5.4.3.6.8.6 1.5 0 .8-.2 1.4-.7 1.7-.5.4-1.3.6-2.3.6h-.4V48h-1.3c-.1-.2-.2-.2-.4-.1m1.7-3.9c.6 0 1-.1 1.3-.4.3-.3.4-.7.4-1.3 0-.5-.1-.8-.3-1.1-.2-.2-.5-.3-.9-.3h-.3c0 .3 0 .5-.1.6V44zm-11.9 3.9c.1-.7.2-1.2.2-1.4.1-.4.1-.7.1-.9l.7-5.2h1c.3.6.5 1.1.7 1.5.2.4.4.8.6 1.1.4.8.8 1.6 1.3 2.5.1-.3.3-.5.3-.7l.3-.6.3-.6.3-.6c.5-1 .9-1.9 1.2-2.6h1l.6 5.2c.1.7.1 1.1.2 1.4.1.3.1.6.2.9h-1.8v-.1c0-.7 0-1.2-.1-1.4l-.4-3.5c-.1.3-.3.6-.6 1.1-.2.5-.5.9-.7 1.3-.4.7-.8 1.6-1.3 2.6h-.4c-.3-.7-.7-1.6-1.2-2.5l-.3-.6c-.2-.4-.3-.6-.4-.7 0-.1-.1-.2-.2-.4l-.3-.6-.3 2.3v.1c-.1 1.2-.2 2-.2 2.5h-.6c-.1-.2-.1-.2-.2-.1zm-9.1-3.7c0-.6.1-1.2.3-1.7.2-.5.5-.9.8-1.3.7-.7 1.8-1 3.1-1.1 1.3 0 2.3.3 3 1 .7.7 1.1 1.6 1.1 2.9 0 1.2-.4 2.1-1.1 2.8-.7.7-1.7 1.1-3 1.1-.4 0-.8 0-1.2-.1-.4-.1-.7-.2-1-.3-.3-.1-.6-.3-.8-.5-.4-.3-.6-.7-.8-1.2-.3-.4-.4-1-.4-1.6zm1.8-.1c0 1 .2 1.8.6 2.4.4.6 1 .9 1.8.9.4 0 .7-.1 1-.2.3-.1.5-.4.7-.6.4-.6.6-1.4.6-2.4s-.2-1.8-.6-2.4c-.1-.2-.3-.4-.5-.5-.1-.2-.3-.3-.5-.3-.2-.1-.4-.1-.7-.1-.7 0-1.3.3-1.8.9-.4.5-.6 1.3-.6 2.3zm-2.6-2h-.2c-.1-.4-.4-.7-.7-.9-.4-.2-.8-.3-1.3-.3-.8 0-1.4.3-1.8.8-.4.6-.7 1.3-.7 2.3 0 1.1.2 1.9.7 2.5.4.6 1.1.8 1.9.8.4 0 .7-.1 1.1-.2.4-.1.7-.4 1-.6h.1l-.3.9c-.4.2-.8.3-1.1.4-.2.2-.6.2-1 .2-1.3 0-2.3-.3-3-1-.2-.2-.3-.4-.5-.6-.1-.2-.2-.4-.3-.7-.1-.2-.2-.5-.2-.7 0-.3-.1-.5-.1-.9 0-1.2.4-2.1 1.1-2.8.2-.2.5-.4.8-.6.3-.2.7-.3 1-.3.4-.1.8-.1 1.2-.1.4 0 .8 0 1.2.1.4.1.8.2 1.2.4-.1.2-.1.4-.2.6 0 .2 0 .3-.1.4.2.1.2.2.2.3zm-10.2 3.7v-1.2h2.7v1.2h-2.7zm-9.3-1.6c0-.6.1-1.2.3-1.7.2-.5.5-.9.8-1.3.7-.7 1.8-1 3.1-1.1 1.3 0 2.3.3 3 1 .7.7 1.1 1.6 1.1 2.9 0 1.2-.4 2.1-1.1 2.8-.7.7-1.7 1.1-3 1.1-.4 0-.8 0-1.2-.1-.4-.1-.7-.2-1-.3-.3-.1-.6-.3-.8-.5-.4-.3-.6-.7-.8-1.2-.3-.4-.4-1-.4-1.6zm1.8-.1c0 1 .2 1.8.6 2.4.4.6 1 .9 1.8.9.4 0 .7-.1 1-.2.3-.1.5-.4.7-.6.4-.6.6-1.4.6-2.4s-.2-1.8-.6-2.4c-.1-.2-.3-.4-.5-.5-.2-.2-.4-.3-.6-.3-.2-.1-.4-.1-.7-.1-.7 0-1.3.3-1.8.9-.3.5-.5 1.3-.5 2.3zM12 47.9c0-.6.1-1.2.1-1.7v-5.9h1.1c1.2 1.4 2 2.2 2.3 2.5.7.8 1.5 1.6 2.3 2.5v-5h.8c0 .3-.1.8-.1 1.4v5.2c0 .3 0 .6.1.9h-.9c-.8-.9-1.5-1.7-2.2-2.4-.2-.2-.4-.5-.6-.7l-.6-.6c-.1-.2-.4-.4-.8-.8l-.6-.6V48h-.7c0-.2-.1-.2-.2-.1zm-8.1 0c.1-.7.1-1.2.1-1.7v-5.9h1.1c1.2 1.4 2 2.2 2.3 2.5.7.8 1.5 1.6 2.3 2.5v-5h.8c0 .3-.1.8-.1 1.4v5.2c0 .3 0 .6.1.9h-.9c-.8-.9-1.5-1.7-2.2-2.4-.2-.2-.4-.5-.6-.7l-.6-.6c-.1-.2-.4-.4-.8-.8l-.6-.6V48h-.7c0-.2-.1-.2-.2-.1zm-3.4 0c0-.3.1-.9.1-1.6v-4.4c0-.5 0-1.1-.1-1.6h1.4c.1 0 .2 0 .5-.1 0 .4-.1.9-.1 1.6v4.5c0 .6.1 1.1.1 1.5H1.1c-.2 0-.4 0-.6.1z"/><path class="st1" d="M45.2.1H42c-.1 0-.2 0-.2.1.1 1 .2 2.1.3 3.1 0 .1.2.2.3.2h3.4c.1 0 .2 0 .2-.1-.2-1-.3-2.1-.5-3.1-.1-.2-.2-.2-.3-.2m.6 4h-3.4c-.1 0-.2.1-.2.2.1 1.1.3 2.3.4 3.4 0 .2.2.3.3.3h3.6c.1 0 .2-.1.2-.2-.2-1.1-.4-2.3-.6-3.4 0-.2-.1-.3-.3-.3zm.7 4.4h-3.6c-.1 0-.2.1-.2.2.1 1.3.3 2.6.4 3.8 0 .2.2.3.4.3h3.8c.2 0 .2-.1.2-.3-.2-1.3-.4-2.6-.6-3.8 0 0-.2-.2-.4-.2zm.8 5.1h-3.8c-.2 0-.3.1-.3.3.2 1.4.3 2.9.5 4.3 0 .2.2.4.4.4h4c.2 0 .3-.2.2-.3-.2-1.4-.5-2.9-.7-4.3.1-.3-.1-.4-.3-.4zm1 5.6h-4c-.2 0-.3.2-.3.4.2 1.6.4 3.3.6 4.9 0 .2.2.5.5.5h4.3c.2 0 .3-.2.3-.4-.3-1.6-.5-3.3-.8-4.9-.2-.3-.4-.5-.6-.5zm1 6.4H45c-.2 0-.3.2-.3.4.2 1.9.4 3.8.6 5.6 0 .3.2.6.5.6h4.6c.3 0 .3-.3.3-.5-.3-1.9-.6-3.8-.9-5.6 0-.2-.3-.5-.5-.5zM40.9 0h-3.2c-.1 0-.2 0-.2.1.1 1 .1 2.1.2 3.1 0 .1.2.2.3.2h3.4c.1 0 .2 0 .2-.2-.1-1-.2-2.1-.3-3.1-.1 0-.3-.1-.4-.1zm.4 4.1h-3.4c-.1 0-.2.1-.2.2.1 1.1.1 2.3.2 3.4 0 .1.2.2.3.3h3.6c.1 0 .2-.1.2-.2-.1-1.1-.3-2.3-.4-3.4 0-.2-.1-.3-.3-.3zm.5 4.4h-3.6c-.1 0-.3.1-.3.2.1 1.3.1 2.6.2 3.9 0 .2.2.3.3.3h3.8c.2 0 .3-.1.3-.3-.1-1.3-.3-2.6-.4-3.8 0-.2-.2-.3-.3-.3zm.5 5h-3.8c-.2 0-.3.1-.3.3.1 1.4.2 2.9.2 4.3 0 .2.2.4.4.4h4c.2 0 .3-.2.3-.3-.2-1.4-.3-2.9-.5-4.3.1-.2-.1-.4-.3-.4zm.6 5.7h-4c-.2 0-.3.2-.3.4.1 1.6.2 3.3.3 4.9 0 .2.2.5.4.5h4.3c.2 0 .3-.2.3-.4-.2-1.6-.4-3.3-.5-4.9-.1-.3-.3-.5-.5-.5zm.7 6.4h-4.3c-.2 0-.4.2-.4.5.1 1.9.2 3.8.3 5.6 0 .2.2.6.5.6h4.6c.3 0 .4-.3.4-.5-.2-1.9-.4-3.8-.6-5.6-.1-.3-.3-.6-.5-.6zM36.6 0h-3.4c-.1 0-.3.1-.3.2v3c0 .1.2.2.3.2h3.6c.1 0 .3-.1.3-.2-.1-1-.1-2-.2-3 0-.1-.2-.2-.3-.2zm.2 4h-3.6c-.1 0-.3.1-.3.2v3.4c0 .2.2.3.3.3H37c.1 0 .3-.1.3-.3-.1-1.1-.1-2.3-.2-3.4 0-.1-.2-.2-.3-.2zm.2 4.5h-3.8c-.2 0-.3.1-.3.3v3.8c0 .2.2.3.3.3h4c.2 0 .3-.1.3-.3-.1-1.3-.1-2.5-.2-3.8 0-.2-.1-.3-.3-.3zm.2 5h-4c-.2 0-.4.2-.4.3v4.3c0 .2.2.4.4.4h4.3c.2 0 .4-.2.4-.4-.1-1.4-.2-2.8-.2-4.3-.1-.1-.3-.3-.5-.3zm.3 5.7h-4.3c-.2 0-.4.2-.4.4v4.8c0 .2.2.5.4.5h4.6c.3 0 .4-.3.4-.5l-.3-4.8c0-.2-.2-.4-.4-.4zm.3 6.4h-4.6c-.3 0-.4.3-.4.5v5.6c0 .3.2.6.5.6h4.9c.3 0 .4-.3.4-.6-.1-1.9-.2-3.7-.3-5.6 0-.2-.2-.5-.5-.5zM50.3 33h-4.4c-.3 0-.4.3-.4.6 0 .2.1.5.1.7 0 .3.3.7.6.7h4.5c.3 0 .4-.4.3-.6 0-.2-.1-.5-.1-.7 0-.3-.3-.7-.6-.7zm-6 0h-4.4c-.3 0-.4.3-.4.6v.7c0 .3.2.7.6.7h4.5c.3 0 .4-.4.4-.6 0-.2-.1-.5-.1-.7-.1-.3-.3-.7-.6-.7zm-6 0h-5.1c-.3 0-.3.4-.3.6v.7c0 .2 0 .7.3.7h5.2c.3 0 .5-.4.5-.6v-.7c-.1-.3-.3-.7-.6-.7zm21-16.4h-2.4c-.2 0-.3.2-.2.3.2.9.5 1.8.7 2.7.1.2.3.5.6.5h2.5c.2 0 .2-.2.2-.4-.3-.9-.5-1.8-.8-2.7-.1-.2-.3-.4-.6-.4zm-3.8 0h-2.4c-.2 0-.3.2-.2.3l.6 2.7c0 .2.3.5.5.5h2.5c.2 0 .3-.2.2-.4-.2-.9-.5-1.8-.7-2.7 0-.2-.3-.4-.5-.4zm-3.9 0h-2.4c-.2 0-.3.2-.3.3.2.9.3 1.8.5 2.7 0 .2.3.5.5.5h2.5c.2 0 .3-.2.3-.4l-.6-2.7c0-.2-.2-.4-.5-.4zm8.9 4.1H58c-.2 0-.3.2-.2.4.3 1 .5 2 .8 3 .1.3.3.5.6.6h2.6c.2 0 .3-.2.2-.4l-.9-3c-.1-.3-.3-.6-.6-.6zm-4 0H54c-.2 0-.3.2-.3.4l.6 3c.1.3.3.5.6.5h2.6c.2 0 .3-.2.2-.4-.3-1-.5-2-.8-3 .1-.3-.1-.5-.4-.5zm-4 0H50c-.2 0-.3.2-.3.4.2 1 .3 2 .5 3 0 .3.3.5.6.5h2.6c.2 0 .3-.2.3-.4l-.6-3c-.1-.3-.4-.5-.6-.5zm9.3 4.5h-2.6c-.2 0-.3.3-.2.4.3 1.1.6 2.2.8 3.3.1.3.4.6.7.6h2.8c.3 0 .3-.3.2-.5-.3-1.1-.6-2.2-1-3.3-.1-.2-.4-.5-.7-.5zm-4.2 0H55c-.3 0-.3.3-.3.5.2 1.1.5 2.2.7 3.3.1.3.3.6.6.6h2.8c.3 0 .3-.3.3-.5-.3-1.1-.6-2.2-.8-3.3-.2-.3-.4-.6-.7-.6zm-4.2 0h-2.6c-.3 0-.3.3-.3.5l.6 3.3c0 .3.3.6.6.6h2.8c.3 0 .3-.3.3-.5-.2-1.1-.5-2.2-.7-3.3-.2-.3-.4-.6-.7-.6zm9.8 4.9h-2.8c-.3 0-.3.3-.3.5l.9 3.6c.1.3.4.7.7.7h2.9c.3 0 .3-.4.2-.6-.4-1.2-.7-2.4-1.1-3.6.1-.2-.2-.6-.5-.6zm-4.4 0H56c-.3 0-.3.3-.3.5.3 1.2.5 2.4.8 3.6.1.3.3.7.7.7h2.9c.3 0 .3-.4.3-.6l-.9-3.6c-.1-.2-.4-.6-.7-.6zm-4.4 0h-2.8c-.3 0-.4.3-.3.5l.6 3.6c.1.3.3.7.7.7h2.9c.3 0 .4-.4.3-.6-.3-1.2-.5-2.4-.8-3.6 0-.2-.3-.6-.6-.6zM19.8.1c-.1 0-.3.1-.3.2-.2 1-.3 2.1-.5 3.1 0 .1.1.1.2.1h3.4c.1 0 .3-.1.3-.2.1-1 .2-2.1.3-3.1 0-.1-.1-.2-.2-.2-1 0-2.1.1-3.2.1zm-.6 4c-.1 0-.3.1-.3.2-.2 1.1-.4 2.3-.6 3.4 0 .1.1.2.2.2h3.6c.1 0 .3-.1.3-.3.1-1.1.3-2.3.4-3.4 0-.1-.1-.2-.2-.2-1.2.1-2.3.1-3.4.1zm-.7 4.4c-.2 0-.3.1-.4.3-.2 1.3-.4 2.6-.6 3.8 0 .2.1.3.2.3h3.8c.2 0 .4-.1.4-.3.1-1.3.3-2.6.4-3.8 0-.1-.1-.2-.2-.2-1.3-.1-2.5-.1-3.6-.1zm-.8 5.1c-.2 0-.4.2-.4.4-.2 1.4-.5 2.9-.7 4.3 0 .2.1.3.2.3h4c.2 0 .4-.2.4-.4.2-1.4.3-2.9.5-4.3 0-.2-.1-.3-.3-.3-1.2-.1-2.5-.1-3.7 0zm-1 5.6c-.2 0-.4.2-.5.4-.3 1.6-.5 3.3-.8 4.9 0 .2 0 .4.3.4H20c.2 0 .4-.3.5-.5.2-1.6.4-3.3.6-4.9 0-.2-.1-.4-.3-.4-1.4.1-2.7.1-4.1.1zm-1 6.4c-.3 0-.5.3-.5.5-.3 1.9-.6 3.8-.9 5.6 0 .2 0 .5.3.5h4.6c.3 0 .5-.3.5-.6.2-1.9.4-3.8.6-5.6 0-.2-.1-.4-.3-.4h-4.3zM24.1 0c-.1 0-.3.1-.3.2-.1 1-.2 2.1-.3 3.1 0 .1.1.2.2.2h3.4c.1 0 .3-.1.3-.2.1-1 .1-2.1.2-3.1 0-.1-.1-.1-.2-.1-1.2-.1-2.2-.1-3.3-.1zm-.4 4.1c-.1 0-.3.1-.3.2-.1 1.1-.3 2.3-.4 3.4 0 .1.1.2.2.2h3.6c.1 0 .3-.1.3-.3.1-1.1.1-2.3.2-3.4 0-.1-.1-.2-.2-.2-1.2.1-2.3.1-3.4.1zm-.5 4.4c-.2 0-.3.1-.3.3-.1 1.3-.3 2.6-.4 3.8 0 .2.1.3.3.3h3.8c.2 0 .3-.1.3-.3 0-1.3.1-2.6.1-3.9 0-.1-.1-.2-.3-.2h-3.5zm-.5 5c-.2 0-.4.2-.4.3-.2 1.4-.3 2.9-.5 4.3 0 .2.1.3.3.3h4c.2 0 .4-.2.4-.4.1-1.4.2-2.9.2-4.3 0-.2-.1-.3-.3-.3-1.2.1-2.5.1-3.7.1zm-.6 5.7c-.2 0-.4.2-.4.4-.2 1.6-.4 3.3-.5 4.9 0 .2.1.4.3.4h4.3c.2 0 .4-.3.4-.5.1-1.6.2-3.3.3-4.9 0-.2-.1-.4-.3-.4-1.4.1-2.8.1-4.1.1zm-.7 6.4c-.3 0-.4.3-.5.5-.2 1.9-.4 3.8-.6 5.6 0 .2.1.5.4.5h4.6c.3 0 .5-.3.5-.6.1-1.9.2-3.8.3-5.6 0-.2-.1-.5-.4-.5-1.4.1-2.8.1-4.3.1zm7-25.6c-.1 0-.3.1-.3.2-.1 1-.1 2-.2 3 0 .1.1.2.3.2h3.6c.1 0 .3-.1.3-.2v-3c0-.1-.2-.2-.3-.2h-3.4zm-.2 4c-.1 0-.3.1-.3.2-.1 1.1-.1 2.3-.2 3.4 0 .2.1.3.3.3h3.8c.2 0 .3-.1.3-.3V4.2c0-.1-.2-.2-.3-.2h-3.6zM28 8.5c-.2 0-.3.1-.3.3-.1 1.3-.1 2.5-.2 3.8 0 .2.1.3.3.3h4c.2 0 .3-.1.3-.3V8.8c0-.2-.2-.3-.3-.3H28zm-.2 5c-.2 0-.4.2-.4.4-.1 1.4-.2 2.8-.2 4.3 0 .2.1.4.4.4h4.3c.2 0 .4-.2.4-.4v-4.3c0-.2-.2-.3-.4-.3-1.5-.1-2.8-.1-4.1-.1zm-.3 5.7c-.2 0-.4.2-.4.4l-.3 4.8c0 .2.1.5.4.5h4.6c.3 0 .4-.3.4-.5v-4.8c0-.2-.2-.4-.4-.4h-4.3zm-.3 6.4c-.3 0-.5.3-.5.5-.1 1.9-.2 3.7-.3 5.6 0 .3.1.6.4.6h4.9c.3 0 .5-.4.5-.6v-5.6c0-.2-.2-.5-.4-.5h-4.6zM14.7 33c-.3 0-.6.4-.6.7 0 .2-.1.5-.1.7 0 .2 0 .6.3.6h4.5c.3 0 .6-.4.6-.7 0-.2.1-.5.1-.7 0-.2-.1-.6-.4-.6h-4.4zm6 0c-.3 0-.5.4-.6.6 0 .2-.1.5-.1.7 0 .3.1.6.4.6h4.5c.3 0 .5-.4.6-.7v-.7c0-.3-.1-.6-.4-.6-1.4.1-2.9.1-4.4.1zm6 0c-.3 0-.5.4-.5.6v.7c0 .3.1.6.5.6h5.2c.3 0 .3-.4.3-.6v-.7c0-.2 0-.6-.3-.6h-5.2zm-21-16.4c-.2 0-.5.2-.6.5-.3.9-.5 1.8-.8 2.7 0 .2 0 .4.2.4H7c.3 0 .5-.3.6-.5.2-.9.5-1.8.7-2.7 0-.2 0-.3-.2-.3-.8-.1-1.6-.1-2.4-.1zm3.8 0c-.2 0-.5.2-.5.4-.2.9-.5 1.8-.7 2.7 0 .2 0 .4.2.4H11c.3 0 .5-.2.5-.5l.6-2.7c0-.2 0-.3-.2-.3H9.5zm3.9 0c-.2 0-.5.2-.5.4l-.6 2.7c0 .2 0 .4.3.4h2.5c.3 0 .5-.2.5-.5.2-.9.3-1.8.5-2.7 0-.2-.1-.3-.3-.3-.8-.1-1.6 0-2.4 0zm-8.9 4.1c-.3 0-.5.3-.6.5l-.9 3c-.1.2 0 .4.2.4h2.6c.3 0 .6-.3.6-.6.3-1 .5-2 .8-3 0-.2 0-.4-.2-.4-.8.1-1.6.1-2.5.1zm4 0c-.3 0-.5.3-.6.5-.3 1-.5 2-.8 3 0 .2 0 .4.2.4h2.6c.3 0 .5-.3.6-.5l.6-3c0-.2 0-.4-.3-.4H8.5zm4 0c-.3 0-.5.2-.5.5l-.6 3c0 .2 0 .4.3.4h2.6c.3 0 .5-.3.6-.5.2-1 .3-2 .5-3 0-.2-.1-.4-.3-.4h-2.6zm-9.3 4.5c-.3 0-.6.3-.7.6-.3 1.1-.6 2.2-1 3.3-.1.2 0 .5.2.5h2.8c.3 0 .6-.4.7-.6.3-1.1.6-2.2.8-3.3 0-.2 0-.5-.2-.4-.8-.1-1.7-.1-2.6-.1zm4.2 0c-.3 0-.6.3-.6.6-.3 1.1-.6 2.1-.8 3.2-.1.2 0 .5.3.5h2.8c.3 0 .6-.3.6-.6.2-1.1.5-2.2.7-3.3 0-.2 0-.5-.3-.5-.9.1-1.8.1-2.7.1zm4.2 0c-.3 0-.5.3-.6.6-.2 1.1-.5 2.2-.7 3.3 0 .2 0 .5.3.5h2.8c.3 0 .6-.3.6-.6l.6-3.3c0-.2-.1-.5-.3-.5h-2.7zm-9.8 4.9c-.3 0-.6.4-.7.7C.7 32 .4 33.2 0 34.4c0 .2 0 .6.3.6h2.9c.3 0 .7-.4.7-.7l.9-3.6c.1-.2 0-.5-.3-.5-.8-.1-1.8-.1-2.7-.1zm4.4 0c-.3 0-.6.4-.7.6l-.9 3.6c-.1.2 0 .6.3.6h2.9c.3 0 .6-.4.7-.7.3-1.2.5-2.4.8-3.6 0-.2 0-.5-.3-.5H6.2zm4.4 0c-.3 0-.6.4-.6.6-.3 1.2-.5 2.4-.8 3.6 0 .2 0 .6.3.6h2.9c.3 0 .6-.4.7-.7l.6-3.6c0-.2 0-.5-.3-.5h-2.8z"/></svg>