<svg id="Layer_1" xmlns="http://www.w3.org/2000/svg" xmlns:xlink="http://www.w3.org/1999/xlink" viewBox="0 0 234 128"><style>.st0{clip-path:url(#SVGID_2_)}.st1{fill:#fff}.st2{fill:none;stroke:#0468b0;stroke-width:1.058;stroke-miterlimit:10}.st3{fill:none;stroke:#231f20;stroke-width:.275;stroke-linecap:round}.st4{fill:#08519f}.st5{fill:#fcee21}.st6{fill:none;stroke:#fff;stroke-width:1.2e-2;stroke-miterlimit:22.926}.st7{clip-path:url(#SVGID_4_);fill:#08519f}.st8{fill:#231f20}.st9{fill:none;stroke:#08519f;stroke-width:1.102;stroke-linejoin:round;stroke-miterlimit:10}.st10{font-family:&apos;Arial-BoldMT&apos;}.st11{font-size:5.0157px}.st12{font-family:&apos;ArialMT&apos;}.st13{font-size:4.5597px}.st14{fill:#0468b0}.st15{fill:#b2b4b6}.st16{clip-path:url(#SVGID_6_);fill:url(#SVGID_7_)}.st17{fill:#414142}.st18,.st19{fill-rule:evenodd;clip-rule:evenodd}.st18{clip-path:url(#SVGID_9_);fill:#fff}.st19{fill:#fdfeff}.st19,.st20,.st21{clip-path:url(#SVGID_9_)}.st20{fill-rule:evenodd;clip-rule:evenodd;fill:#fdfdfe}.st21{fill:#fbfcfe}.st21,.st22,.st23{fill-rule:evenodd;clip-rule:evenodd}.st22{clip-path:url(#SVGID_9_);fill:#fbfaf9}.st23{fill:#f9f9fa}.st23,.st24,.st25{clip-path:url(#SVGID_9_)}.st24{fill-rule:evenodd;clip-rule:evenodd;fill:#f7f7f6}.st25{fill:#f5f5f4}.st25,.st26,.st27{fill-rule:evenodd;clip-rule:evenodd}.st26{clip-path:url(#SVGID_9_);fill:#f3f3f3}.st27{fill:#f3f1f0}.st27,.st28,.st29{clip-path:url(#SVGID_9_)}.st28{fill-rule:evenodd;clip-rule:evenodd;fill:#f1f0f0}.st29{fill:#eeeded}.st29,.st30,.st31{fill-rule:evenodd;clip-rule:evenodd}.st30{clip-path:url(#SVGID_9_);fill:#ecebea}.st31{fill:#eaeaea}.st31,.st32,.st33{clip-path:url(#SVGID_9_)}.st32{fill-rule:evenodd;clip-rule:evenodd;fill:#eae8e7}.st33{fill:#e8e7e7}.st33,.st34,.st35{fill-rule:evenodd;clip-rule:evenodd}.st34{clip-path:url(#SVGID_9_);fill:#e8e5e4}.st35{fill:#e6e5e4}.st35,.st36,.st37{clip-path:url(#SVGID_9_)}.st36{fill-rule:evenodd;clip-rule:evenodd;fill:#e4e4e4}.st37{fill:#e4e2e1}.st37,.st38,.st39{fill-rule:evenodd;clip-rule:evenodd}.st38{clip-path:url(#SVGID_9_);fill:#e1dfde}.st39{fill:#dfdfde}.st39,.st40,.st41{clip-path:url(#SVGID_9_)}.st40{fill-rule:evenodd;clip-rule:evenodd;fill:#dfdddb}.st41{fill:#dddcdb}.st41,.st42,.st43{fill-rule:evenodd;clip-rule:evenodd}.st42{clip-path:url(#SVGID_9_);fill:#dddad8}.st43{fill:#dbdad8}.st43,.st44,.st45{clip-path:url(#SVGID_9_)}.st44{fill-rule:evenodd;clip-rule:evenodd;fill:#d9dad8}.st45{fill:#dad7d5}.st45,.st46,.st47{fill-rule:evenodd;clip-rule:evenodd}.st46{clip-path:url(#SVGID_9_);fill:#d7d5d3}.st47{fill:#d4d5d2}.st47,.st48,.st49{clip-path:url(#SVGID_9_)}.st48{fill-rule:evenodd;clip-rule:evenodd;fill:#d4d2d0}.st49{fill:#d2d2d0}.st49,.st50,.st51{fill-rule:evenodd;clip-rule:evenodd}.st50{clip-path:url(#SVGID_9_);fill:#d0d1cf}.st51{fill:#d1d0ce}.st51,.st52,.st53{clip-path:url(#SVGID_9_)}.st52{fill-rule:evenodd;clip-rule:evenodd;fill:#7ab542}.st53{fill:#fff}</style><defs><path id="SVGID_1_" d="M61.2 0H234v112H61.2z"/></defs><clipPath id="SVGID_2_"><use xlink:href="#SVGID_1_" overflow="visible"/></clipPath><g class="st0"><path class="st1" d="M234 97.1c-13.9 6.5-29.4 10.1-45.8 10.1-59.4 0-107.8-48-108.4-107.2H234v97.1z"/></g><g class="st0"><path class="st2" d="M234 97.1c-13.9 6.5-29.4 10.1-45.8 10.1-59.4 0-107.8-48-108.4-107.2"/></g><path class="st3" d="M146 17.9v17"/><path class="st4" d="M191.6 17.7h25.8V35h-25.8z"/><path class="st5" d="M204.5 20.9l-.6.4.2-.7-.6-.4h.8l.2-.7.2.7h.8l-.6.4.2.7zm0 11.8l-.6.4.2-.7-.6-.4h.8l.2-.7.2.7h.8l-.6.4.2.7zm-5.9-5.9l-.6.4.3-.7-.6-.4h.7l.2-.7.3.7h.7l-.6.4.2.7zm.9-3l-.6.4.2-.7-.6-.4h.7l.3-.7.2.7h.7l-.6.4.2.7zm2-2.1l-.5.4.2-.7-.6-.4h.7l.3-.7.2.7h.7l-.6.4.2.7zm5.9 0l-.6.4.2-.7-.6-.4h.8l.2-.7.2.7h.8l-.7.4.2.7zm2.1 2.1l-.6.4.2-.7-.6-.4h.8l.2-.7.2.7h.8l-.6.4.2.7zm-10.1 5.9l-.6.4.3-.6-.6-.5h.7l.2-.7.3.7h.7l-.6.5.2.6zm2.1 2.2l-.6.4.3-.6-.6-.5h.7l.2-.7.2.7h.8l-.6.5.2.6zm5.9 0l-.6.4.3-.6-.6-.5h.7l.2-.7.3.7h.7l-.6.5.2.6zm2.1-2.2l-.6.4.3-.6-.6-.5h.7l.3-.7.2.7h.7l-.6.5.2.6zm.8-2.9l-.6.4.3-.7-.6-.4h.7l.2-.7.3.7h.7l-.6.4.2.7z"/><path class="st6" d="M191.6 17.7h25.8m0 0h-25.8V35h25.8V17.7z"/><defs><path id="SVGID_3_" d="M191.6 17.7h25.8V35h-25.8z"/></defs><clipPath id="SVGID_4_"><use xlink:href="#SVGID_3_" overflow="visible"/></clipPath><path class="st7" d="M196.1 39.8v-.3c-.2.3-.4.4-.7.4-.1 0-.3 0-.4-.1-.1-.1-.2-.1-.3-.2-.1-.1-.1-.2-.1-.3v-1.9h.4v1.7c0 .1.1.2.2.2.1.1.2.1.3.1.1 0 .2 0 .3-.1.1-.1.2-.1.2-.3 0-.1.1-.3.1-.5v-1.3h.4v2.4h-.4zm1 0v-2.4h.4v.4c.1-.2.2-.3.3-.3.1-.1.2-.1.3-.1.1 0 .3 0 .4.1l-.1.4c-.1-.1-.2-.1-.3-.1-.1 0-.2 0-.2.1l-.2.2c0 .1-.1.3-.1.5v1.2h-.5zm1.4-1.2c0-.4.1-.8.4-1 .2-.2.5-.3.7-.3.3 0 .6.1.8.3.2.2.3.5.3.9 0 .3 0 .5-.1.7-.1.2-.2.3-.4.4-.2.1-.4.1-.6.1-.3 0-.6-.1-.8-.3-.2-.1-.3-.4-.3-.8m.4 0c0 .3.1.5.2.7.1.2.3.2.5.2s.4-.1.5-.2c.1-.2.2-.4.2-.7 0-.3-.1-.5-.2-.7-.1-.2-.3-.2-.5-.2s-.4.1-.5.2c-.2.2-.2.4-.2.7m.4-1.5l.3-.6h.5l-.5.6h-.3zm1.8 3.6v-3.3h.4v.3l.3-.3c.1-.1.2-.1.4-.1s.4.1.5.2c.2.1.3.3.3.4.1.2.1.4.1.6 0 .2 0 .5-.1.7-.1.2-.2.3-.4.4-.2.1-.3.2-.5.2-.1 0-.3 0-.4-.1-.1-.1-.2-.1-.3-.2v1.2h-.3zm.4-2.1c0 .3.1.5.2.7s.3.2.4.2c.2 0 .3-.1.5-.2.1-.2.2-.4.2-.7 0-.3-.1-.5-.2-.7-.1-.2-.3-.2-.4-.2-.2 0-.3.1-.5.2-.1.2-.2.4-.2.7m3.7.9c-.1.1-.3.2-.4.3-.1.1-.3.1-.4.1-.3 0-.5-.1-.6-.2-.1-.1-.2-.3-.2-.5 0-.1 0-.2.1-.3.1-.1.1-.2.2-.2.1-.1.2-.1.3-.1.1 0 .2 0 .4-.1.3 0 .6-.1.7-.1v-.1c0-.2 0-.3-.1-.3-.1-.1-.3-.1-.5-.1s-.3 0-.4.1c-.1.1-.2.2-.2.4l-.4-.1c0-.2.1-.3.2-.4.1-.1.2-.2.4-.2.2-.1.3-.1.5-.1s.4 0 .5.1c.1 0 .2.1.3.2.1.1.1.2.1.3v1.6c0 .1.1.2.1.3h-.4c-.1-.4-.2-.5-.2-.6m0-.9c-.1.1-.4.1-.7.2-.2 0-.3.1-.4.1-.1 0-.1.1-.2.1 0 .1-.1.1-.1.2s0 .2.1.3c.1.1.2.1.4.1s.3 0 .4-.1l.3-.3c0-.1.1-.2.1-.4v-.2zm1-2.1h.4v.5h-.4v-.5zm0 .9h.4v2.4h-.4v-2.4zm4.5-.9h.4v1.9c0 .3 0 .6-.1.8-.1.2-.2.4-.4.5-.2.1-.4.2-.8.2-.3 0-.6-.1-.8-.2-.2-.1-.3-.3-.4-.5-.1-.2-.1-.5-.1-.8v-1.9h.4v1.9c0 .3 0 .5.1.6.1.1.1.2.3.3.1.1.3.1.5.1.3 0 .5-.1.7-.2.1-.1.2-.4.2-.8v-1.9zm1.1 3.3v-2.4h.4v.3c.2-.3.4-.4.8-.4.1 0 .3 0 .4.1.1.1.2.1.3.2.1.1.1.2.1.3v1.9h-.4V38c0-.1-.1-.1-.2-.2-.1 0-.2-.1-.3-.1-.2 0-.3.1-.4.2-.1.1-.2.3-.2.6v1.3h-.5zm2.5-3.3h.4v.5h-.4v-.5zm0 .9h.4v2.4h-.4v-2.4zm.9 1.2c0-.4.1-.8.4-1 .2-.2.5-.3.7-.3.3 0 .6.1.8.3.2.2.3.5.3.9 0 .3 0 .5-.1.7-.1.2-.2.3-.4.4-.2.1-.4.1-.6.1-.3 0-.6-.1-.8-.3-.2-.1-.3-.4-.3-.8m.4 0c0 .3.1.5.2.7.1.2.3.2.5.2s.4-.1.5-.2c.1-.2.2-.4.2-.7 0-.3-.1-.5-.2-.7-.1-.2-.3-.2-.5-.2s-.4.1-.5.2c-.1.2-.2.4-.2.7m.5-1.5l.3-.6h.5l-.5.6h-.3z"/><path class="st8" d="M177.9 19.5l.6-.7h-.7l-.3.7h.4zm-.5.9c.1-.1.2-.2.4-.2s.3.1.4.2c.1.1.2.3.2.5s-.1.4-.2.5c-.1.1-.2.2-.4.2s-.3-.1-.4-.2c-.1-.1-.2-.3-.2-.5s.1-.4.2-.5m-.7 1.2c.1.2.3.3.4.4.2.1.4.1.6.1.4 0 .6-.1.9-.4.2-.2.3-.5.3-.9s-.1-.6-.3-.9c-.2-.2-.5-.3-.9-.3-.2 0-.4.1-.6.2-.2.1-.3.3-.4.4-.1.2-.2.4-.2.6.1.4.1.6.2.8m-.8-1.9h-.6v2.4h.6v-2.4zm0-.9h-.6v.6h.6v-.6zm-1.5 1.8v-.4c0-.1-.1-.2-.1-.3-.1-.1-.1-.1-.3-.2-.1 0-.2-.1-.4-.1-.3 0-.6.1-.8.4v-.3h-.6v2.4h.6v-1.6c0-.1.1-.2.2-.2.1-.1.2-.1.3-.1.1 0 .2 0 .2.1.1 0 .1.1.1.2v1.7h.6v-1.6zm-5.6 0c0 .4 0 .6.1.8 0 .1.1.2.2.4.1.1.2.2.4.3.2.1.4.1.7.1.3 0 .5 0 .6-.1.2-.1.3-.2.4-.3.1-.1.2-.2.2-.4s.1-.4.1-.8v-1.7h-.7v2.4c0 .1-.1.2-.2.3-.1.1-.2.1-.4.1s-.3 0-.4-.1c-.1-.1-.2-.2-.2-.3V19h-.7v1.6zm-2.1-.9h-.6v2.4h.6v-2.4zm0-.9h-.6v.6h.6v-.6zm-2.1 2.3v.3c0 .1-.1.2-.2.2-.1.1-.2.1-.3.1-.1 0-.2 0-.2-.1-.1-.1-.1-.1-.1-.2s0-.2.1-.2.2-.1.3-.1c.2 0 .3-.1.4-.1v.1zm-.6-.9c.1 0 .2-.1.3-.1.2 0 .3 0 .3.1.1.1.1.1.1.3v.1c-.1 0-.3.1-.6.2-.2 0-.4.1-.5.1-.1.1-.2.1-.3.2-.1.1-.1.2-.1.4s.1.4.2.5c.1.1.3.2.6.2.1 0 .3 0 .4-.1.1-.1.2-.1.3-.2v.1c0 .1 0 .1.1.2h.6c-.1-.1-.1-.2-.1-.3v-1.2c0-.3 0-.5-.1-.6l-.3-.3c-.1-.1-.3-.1-.6-.1s-.5.1-.7.2c-.2.1-.3.3-.3.5l.6.1c-.1-.1 0-.2.1-.3m-2.9.2c.1-.1.2-.2.4-.2.1 0 .3.1.4.2.1.1.1.3.1.6s0 .5-.1.6c-.1.1-.2.2-.4.2s-.3-.1-.4-.2c-.1-.1-.2-.3-.2-.6s.1-.5.2-.6m-.8 2.6h.6v-1.2l.3.3c.1.1.2.1.4.1.3 0 .5-.1.7-.3.2-.2.3-.5.3-.9s-.1-.7-.3-.9c-.2-.2-.4-.3-.7-.3-.2 0-.3 0-.4.1l-.3.3v-.3h-.6V23zm-1.8-3.5l.6-.7h-.7l-.3.7h.4zm-.5.9c.1-.1.2-.2.4-.2s.3.1.4.2c.1.1.2.3.2.5s-.1.4-.2.5c-.1.1-.2.2-.4.2s-.3-.1-.4-.2c-.1-.1-.2-.3-.2-.5s.1-.4.2-.5m-.7 1.2c.1.2.3.3.4.4.2.1.4.1.6.1.4 0 .6-.1.9-.4.2-.2.3-.5.3-.9s-.1-.6-.3-.9c-.2-.2-.5-.3-.9-.3-.2 0-.4.1-.6.2-.2.1-.3.3-.4.4-.1.2-.2.4-.2.6.1.4.1.6.2.8m-1.3-.2c0-.4 0-.7.1-.8 0-.1.1-.2.1-.3.1 0 .1-.1.2-.1s.2 0 .3.1l.2-.5c-.1-.1-.3-.1-.4-.1-.1 0-.2 0-.3.1-.1 0-.2.2-.3.3v-.3h-.6v2.4h.6v-.8zm-1.5.7v-2.4h-.6v1.6c0 .1-.1.2-.2.2-.1.1-.2.1-.3.1-.1 0-.2 0-.2-.1-.1 0-.1-.1-.1-.2v-1.7h-.6v1.5c0 .2 0 .4.1.5.1.1.1.2.3.3.1.1.3.1.4.1.2 0 .3 0 .4-.1.1-.1.3-.2.3-.3v.4h.5zm-2.8 0v-.6h-1.8v-.9h1.6V20h-1.6v-.7h1.8v-.6h-2.4V22h2.4zm-42.2 20.2c0 .2.1.4.3.5h.2-.9v-.2l-.2-2.4-1.2 2.4c-.1.2-.1.2-.2.2 0 0-.1 0-.1-.2-.1-.2-.5-1-.6-1.1 0-.1-.6-1.2-.6-1.3l-.2 2.2v.2c0 .1.1.1.1.1h.1-.9.1c.2 0 .2-.2.2-.4l.3-3.1c0-.1 0-.1.1-.1l.1.1 1.4 3 1.4-3s0-.1.1-.1l.1.1.4 3.1zm2.6-.7l-.4-1.1c0-.1 0-.1-.1 0l-.4 1.1h.9zm-.5-1.7c.1-.1.1-.2.1-.2l.1.1c.1.2.7 1.8 1 2.4.2.4.3.4.4.4h.2-.8s.1 0 0-.1l-.4-.9h-1l-.2.6c0 .1-.1.2-.1.3 0 .1.1.1.1.1h-1 .1c.2 0 .3-.2.3-.4l1.2-2.3zm4.1 2c0-.3 0-.4-.2-.4h-.1 1c-.1 0-.1.1-.2.2v.8c0 .2 0 .2-.1.2-.3.1-.6.2-.9.2-.3 0-.9 0-1.4-.4-.3-.2-.5-.6-.5-1.1 0-.6.3-1.1.7-1.3.4-.2.8-.3 1.1-.3.3 0 .6 0 .6.1h.4v.6c0-.1 0-.2-.1-.3-.1-.2-.4-.3-1-.3-.2 0-.6 0-.9.3-.2.2-.4.5-.4 1 0 .6.3 1 .4 1.1.3.3.7.4 1.1.4.1 0 .3 0 .4-.1.1 0 .1 0 .1-.1v-.6zm1.9-.1c0-.2 0-.3-.1-.4 0-.1-.6-1-.7-1.2-.1-.2-.2-.2-.3-.3-.1 0-.1-.1-.2-.1h.9s-.1 0-.1.1 0 .1.1.2l.8 1.2c.1-.2.6-1 .7-1.2.1-.1.1-.2.1-.2 0-.1 0-.1-.1-.1h-.1.8s-.1 0-.2.1c-.1 0-.1.1-.2.2-.1.2-.7 1.1-.8 1.3-.1.1-.1.3-.1.4v.7c0 .1 0 .2.2.2h.1-1 .1c.1 0 .1-.1.1-.2v-.7zm3-.2l-.4-1.1c0-.1 0-.1-.1 0l-.4 1.1h.9zm-.4-1.7c.1-.1.1-.2.1-.2l.1.1c.1.2.7 1.8 1 2.4.2.4.3.4.4.4h.2-.8s.1 0 0-.1l-.4-.9h-1l-.2.6c0 .1-.1.2-.1.3 0 .1.1.1.1.1h-1 .1c.2 0 .3-.2.3-.4l1.2-2.3zm2.5 1.5c.1.1.3.1.5.1.1 0 .2 0 .3-.1.1-.1.2-.3.2-.6 0-.5-.3-.8-.7-.8h-.3v1.4zm-.4-.4v-.9c0-.1 0-.2-.2-.2h-.1 1.1c.3 0 .6 0 .8.2.1.1.3.3.3.5 0 .3-.1.6-.5.9.3.4.6.8.9 1 .2.2.4.3.5.3h-.3c-.2 0-.3 0-.4-.1-.2-.1-.3-.3-.6-.6-.2-.2-.4-.5-.4-.6h-.6v1c0 .1 0 .2.2.2h.1-1 .1c.1 0 .1-.1.1-.2V41zm4.3 1.8c.4 0 1.1-.2 1.1-1.4 0-1-.6-1.5-1.2-1.5-.7 0-1.2.4-1.2 1.3 0 1 .5 1.6 1.3 1.6m-.1-3c.9 0 1.6.6 1.6 1.5s-.7 1.6-1.7 1.6c-1.1 0-1.6-.9-1.6-1.6.1-.6.5-1.5 1.7-1.5m2.5 1.6c.1.1.3.1.5.1.1 0 .2 0 .3-.1.1-.1.2-.3.2-.6 0-.5-.3-.8-.7-.8h-.3v1.4zm-.4-.4v-.9c0-.1 0-.2-.2-.2h-.1 1.1c.3 0 .6 0 .8.2.1.1.3.3.3.5 0 .3-.1.6-.5.9.3.4.6.8.9 1 .2.2.4.3.5.3h-.4c-.2 0-.3 0-.4-.1-.2-.1-.3-.3-.6-.6-.2-.2-.4-.5-.4-.6h-.6v1c0 .1 0 .2.2.2h.1-1 .1c.1 0 .1-.1.1-.2V41zm3 1.8c-.1 0-.1 0-.1-.2v-.5.1c.1.3.4.4.7.4.4 0 .6-.2.6-.5s-.2-.4-.5-.7l-.2-.1c-.4-.3-.6-.6-.6-.9 0-.5.4-.8.9-.8h.5v.4s0-.2-.1-.2c0 0-.2-.2-.5-.2s-.6.2-.6.4c0 .3.1.4.5.7l.1.1c.5.3.7.6.7 1 0 .2-.1.5-.4.7-.2.1-.4.1-.7.1.1.3-.2.3-.3.2m3.5-.1c.4 0 .6-.1.6-.2s.1-.2.1-.2v-.1.1c0 .1-.1.4-.1.5 0 .1 0 .1-.1.1h-2.2l.1-.1 1.8-2.7h-.9c-.2 0-.5 0-.6.1-.1.1-.2.2-.2.3 0 .1 0 .1-.1.1v-.1s.1-.4.1-.5v-.1h2.2v.1l-1.8 2.7h1.1zm3.1-3.5c.1.1 0 .1 0 0 0 .1-.1 0-.2.1-.2 0-.6.1-.7.2h-.1c.2-.1.6-.4.6-.4.1 0 .1-.1.1-.1.3.1.3.1.3.2m-.3 2.4l-.4-1.1c0-.1 0-.1-.1 0l-.4 1.1h.9zm-.5-1.7c.1-.1.1-.2.1-.2l.1.1c.1.2.7 1.8 1 2.4.1.4.3.4.4.4h.2-.8s.1 0 0-.1l-.4-.9h-1l-.2.6c0 .1-.1.2-.1.3 0 .1.1.1.1.1h-1 .1c.2 0 .3-.2.3-.4l1.2-2.3zm4 2c0-.3 0-.4-.2-.4h-.1 1c-.1 0-.1.1-.2.2v.8c0 .2 0 .2-.1.2-.3.1-.6.2-.9.2-.3 0-.9 0-1.4-.4-.3-.2-.5-.6-.5-1.1 0-.6.3-1.1.7-1.3.4-.2.8-.3 1.1-.3.3 0 .6 0 .6.1h.4v.6c0-.1 0-.2-.1-.3-.1-.2-.4-.3-1-.3-.2 0-.6 0-.9.3-.2.2-.4.5-.4 1 0 .6.3 1 .4 1.1.3.3.7.4 1.1.4.1 0 .3 0 .4-.1.1 0 .1 0 .1-.1v-.6zm-30 3.8v-1c0-.2 0-.2-.2-.3h-.2 1.1c-.1 0-.2.1-.2.3V46c.1-.1.9-1 1.1-1.1l.3-.3c0-.1 0-.1-.1-.1h1.1c-.1 0-.2 0-.3.1-.2.1-.3.2-.5.4l-1 1 1.3 1.3c.4.4.5.4.7.5.1.1.3.1.3.1h-.5c-.2 0-.4-.1-.6-.3-.2-.2-1.2-1.3-1.4-1.5v1.5c0 .1 0 .2.2.3h.1-1.1.1c.1 0 .1-.1.1-.3v-1.9z"/><path class="st8" d="M115.9 47.7c.4 0 1.1-.2 1.1-1.4 0-1-.6-1.5-1.2-1.5-.7 0-1.2.4-1.2 1.3 0 1.1.6 1.6 1.3 1.6m-.1-2.9c.9 0 1.6.6 1.6 1.5s-.7 1.6-1.7 1.6c-1.1 0-1.6-.9-1.6-1.6.1-.6.6-1.5 1.7-1.5m2.5 1.5c0 .1 0 .1 0 0 .1.1.3.1.5.1.1 0 .2 0 .3-.1.1-.1.2-.3.2-.6 0-.5-.3-.8-.7-.8h-.3v1.4zm-.3-.3v-.9c0-.1 0-.2-.2-.2h-.1 1.1c.3 0 .6 0 .8.2.1.1.3.3.3.5 0 .3-.1.6-.5.9.3.4.6.8.9 1 .2.2.4.3.5.3h-.3c-.2 0-.3 0-.4-.1-.2-.1-.3-.3-.6-.6-.2-.2-.4-.5-.4-.6h-.6v1c0 .1 0 .2.2.2h.1-1 .1c.1 0 .1-.1.1-.2V46z"/><path class="st8" d="M124.2 47.3c0 .1 0 .4.2.4h.2-.8v-.1l-.2-2-1 2-.1.2s-.1 0-.1-.2c-.1-.2-.4-.7-.5-.9-.1-.3-.5-.9-.5-1.1l-.2 1.8v.2c0 .1 0 .1.1.1h.1-.8.1c.1 0 .1-.2.2-.3l.3-2.6v-.1s.1 0 .1.1l1.3 2.5 1.2-2.5s0-.1.1-.1.1 0 .1.1l.2 2.5zm2.8-3.1s0 .1 0 0c0 .1-.1 0-.2.1-.2 0-.6.1-.7.2h-.1c.2-.1.6-.4.6-.4.1 0 .1-.1.1-.1.2 0 .3.1.3.2m-.4 2.4c.1 0 .1 0 0 0l-.4-1.1c0-.1 0-.1-.1 0l-.4 1.1h.9zm-.4-1.7c.1-.1.1-.2.1-.2l.1.1c.1.2.7 1.8 1 2.4.2.4.3.4.4.4h.2-.8s.1 0 0-.1l-.4-.9h-1l-.2.6c0 .1-.1.2-.1.3 0 .1.1.1.1.1h-1 .1c.2 0 .3-.2.3-.4l1.2-2.3zm2.4 2.4c0 .3 0 .4.2.5h.1-.9.2c.1 0 .1-.1.1-.5V45c0-.2 0-.2.1-.2 0 0 .1.1.2.1.1.1.7.7 1.3 1.4l1 1v-2c0-.3 0-.3-.2-.4h-.2.9c-.1 0-.1.1-.1.3v2.6s-.1 0-.3-.2l-1.1-1.1c-.5-.5-.9-1-1.1-1.1l-.2 1.9zm4.2-.5c0-.2 0-.3-.1-.4 0-.1-.6-1-.7-1.2-.1-.2-.2-.2-.3-.3-.1 0-.1-.1-.2-.1h.9s-.1 0-.1.1 0 .1.1.2l.8 1.2c.1-.2.6-1 .7-1.2.1-.1.1-.2.1-.2 0-.1 0-.1-.1-.1h-.1.8s-.1 0-.2.1c-.1 0-.1.1-.2.2-.1.2-.7 1.1-.8 1.3-.1.1-.1.3-.1.4v.7c0 .1 0 .2.2.2h.1-1 .1c.1 0 .1-.1.1-.2v-.7zm3-.2l-.4-1.1c0-.1 0-.1-.1 0l-.4 1.1h.9zm-.5-1.7c.1-.1.1-.2.1-.2l.1.1c.1.2.7 1.8 1 2.4.2.4.3.4.4.4h.2-.8s.1 0 0-.1l-.4-.9h-1l-.2.6c0 .1-.1.2-.1.3 0 .1.1.1.1.1h-1 .1c.2 0 .3-.2.3-.4l1.2-2.3zm-11.2-22.7h-.5.5zm-.5 14.2c.2 0 .3-.1.6-.1v-.1c-.3.1-.4.2-.6.2m-3.3-1.2c.2.1.4.2.5.3v-.1c-.1 0-.3-.1-.5-.2zm-.5-13h1.1v.1h-1.1zm-.1 12.6c.2.2.3.3.5.4v-.1c-.1-.1-.2-.2-.5-.3zm1.7-12.6h1.6v.1h-1.6z"/><path transform="rotate(-162.497 122.21 36.032)" class="st8" d="M121.9 36h.6v.1h-.6z"/><path class="st8" d="M121.4 35.8l.5.2.1-.1-.6-.2zm1.1.3v.1l.6.1v-.1l-.6-.1zm1-13.9h-.5.6zm-.4 14.1c.2.1.4.1.5.2v-.1c-.1 0-.3-.1-.5-.1zm-2.3-.7l.2.1.4.1v-.1l-.3-.1-.2-.1zm.1-13.4h.5v.1h-.5zm-2.8 7.1v1.8-1.8zm0 1.8c0 .3 0 .6.1.9.1.3.1.6.2.9h.1c-.1-.3-.2-.6-.2-.9-.1-.3-.2-.6-.2-.9zm0-5.3h.1v1.8h-.1zm0-3.6L118 24h.1v-1.8l.6.1v-.1h-.6zm0 1.8h.1v1.8h-.1z"/><path class="st8" d="M118.1 27.5h.1v1.8h-.1zm.4 5.3c0 .2 0 .3.1.4l.1.1h.1l-.1-.1c-.1-.1-.2-.2-.2-.4zm.2-10.6h.5v.1h-.5zm0 11.2l.1.2.1.2v.1l.2.2.1.1.1-.1-.1-.1-.2-.2v-.1l-.1-.2-.2-.1zm.5-11.2h.5v.1h-.5z"/><path transform="rotate(-136.552 119.68 34.702)" class="st8" d="M119.6 34.7h.3v.1h-.3z"/><path class="st8" d="M119.2 34.2c0 .1.1.1 0 0l.2.3.1.1.1-.1-.1-.1-.2-.2h-.1zm9.1-12h-.4.6zm-1.5 0h-.5.5zm-2.2 0h-.5.6zm2.7 0h-.5.6zm.5 0h-.4.5zm-2.7 0h-.4.5zm.5 0h-.4.5zm.6 0h-.5.6zm-6.1 8.9h-.2v-1.7h.2v-.1h-.3v1.8h.3zm.2 0h-.2v.1l.2-.1.1-1.8h-.3v.1h.2v1.7zm-.2-3.6h-.2v-1.7h.2v-.1h-.3v1.8h.3zm.2 0h-.2v.1l.2-.1.1-1.8h-.3v.1h.2v1.7z"/><path class="st8" d="M120.6 31.1h-.2v-1.7h.2v-.1h-.3v1.8h.3zm.2 0h-.2v.1l.2-.1.1-1.8h-.3v.1h.2v1.7zm-.2 3.5h-.2v-1.7h.2v-.1h-.3v1.8h.3zm.2 0h-.2v.1l.2-.1.1-1.8h-.3v.1h.2v1.7z"/><path class="st8" d="M120.1 34.6h-.2v-1.7h.2v-.1h-.3v1.8h.3zm.2 0h-.2v.1l.2-.1.1-1.8h-.3v.1h.2v1.7zm.3-7.1h-.2v-1.7h.2v-.1h-.3v1.8h.3zm.2 0h-.2v.1l.2-.1.1-1.8h-.3v.1h.2v1.7zm0-5.3V24h-.4v-1.8h-.1V24h-.5v-1.8 1.9h1.1v-1.9zm.9 12.4h-.2v-1.7h.2v-.1h-.3v1.8h.3zm.2 0h-.2v.1l.2-.1.1-1.8h-.3v.1h.2v1.7z"/><path class="st8" d="M122.2 34.6h-.2v-1.7h.2v-.1h-.3v1.8h.3zm.3 0h-.2v.1l.2-.1.1-1.8h-.3v.1h.2v1.7zm-.3-3.5h-.2v-1.7h.2v-.1h-.3v1.8h.3zm.3 0h-.2v.1l.2-.1.1-1.8h-.3v.1h.2v1.7zm-.3-3.6h-.2v-1.7h.2v-.1h-.3v1.8h.3zm.3 0h-.2v.1l.2-.1.1-1.8h-.3v.1h.2v1.7z"/><path class="st8" d="M122.8 34.6h-.2v-1.7h.2v-.1h-.3v1.8h.3zm.2 0h-.2v.1l.2-.1.1-1.8h-.3v.1h.2v1.7zm-.2-7.1h-.2v-1.7h.2v-.1h-.3v1.8h.3zm.2 0h-.2v.1l.2-.1.1-1.8h-.3v.1h.2v1.7zm-1.3 3.6h-.2v-1.7h.2v-.1h-.3v1.8h.3zm.2 0h-.2v.1l.2-.1.1-1.8h-.3v.1h.2v1.7zm-.2-3.6h-.2v-1.7h.2v-.1h-.3v1.8h.3zm.2 0h-.2v.1l.2-.1.1-1.8h-.3v.1h.2v1.7zm.9 3.6h-.2v-1.7h.2v-.1h-.3v1.8h.3zm.2 0h-.2v.1l.2-.1.1-1.8h-.3v.1h.2v1.7zm0-8.9V24h-.5v-1.8V24h-.5v-1.8h-.1V24h-.5v-1.8 1.9h1.7v-1.9zm0 5.3h.5v.1h-.5z"/><path class="st8" d="M123 25.8h.5v.1h-.5zm0-3.6v1.9h.6V24h-.5v-1.8zm0 8.9h.5v.1h-.5zm0-1.8h.5v.1h-.5zm0 3.6h.5v.1h-.5zm0 1.7h.5v.1h-.5zm-1.9-7.1h-.2v-1.7h.2v-.1h-.3v1.8h.3zm.3 0h-.2v.1l.2-.1.1-1.8h-.3v.1h.2v1.7zm-.3 3.6h-.2v-1.7h.2v-.1h-.3v1.8h.3zm.3 0h-.2v.1l.2-.1.1-1.8h-.3v.1h.2v1.7zm-.3 3.5h-.2v-1.7h.2v-.1h-.3v1.8h.3zm.3 0h-.2v.1l.2-.1.1-1.8h-.3v.1h.2v1.7zm0-12.4V24h-.5v-1.8h-.1v1.9h.6v-1.9zm-3 8.9h-.3v-1.7h.3v-.1h-.3v1.8h.3zm.3 0h-.3v.1l.3-.1.1-1.8h-.3v.1h.3v1.7zm-.1 2c0-.1-.1-.1-.1-.2h.1v-.1h-.2c0 .1.1.3.2.4v-.1zm.1-.2v.3s0-.1-.1-.1v.2l.1.1h.1l-.1-.5zm0-10.7V24h-.6v.1h.6v-1.9zm-.3 5.3h-.3v-1.7h.3v-.1h-.3v1.8h.3zm.3 0h-.3v.1l.3-.1.1-1.8h-.3v.1h.3v1.7z"/><path class="st8" d="M119 31.1h-.2v-1.7h.2v-.1h-.3v1.8h.3zm.2 0h-.2v.1l.2-.1.1-1.8h-.3v.1h.2v1.7zm0-8.9V24h-.5v-1.8 1.9h.6v-1.9zm-.2 11.6l-.1-.2s-.1-.1-.1-.2v-.5h.2v-.1h-.3v.6l.1.2s.1.2.2.2v.1-.1.2-.2zm.2-.9v1.2l-.2-.2v-.1.2l.1.2.1.1.1.1-.1-1.5-.2-.1v.1h.2zm-.2-5.4h-.2v-1.7h.2v-.1h-.3v1.8h.3zm.2 0h-.2v.1l.2-.1.1-1.8h-.3v.1h.2v1.7z"/><path class="st8" d="M119.5 27.5h-.2v-1.7h.2v-.1h-.3v1.8h.3zm.3 0h-.2v.1l.2-.1.1-1.8h-.3v.1h.2v1.7zm-.3 7l-.2-.2v-1.4h.2v-.1h-.3v1.4l.3.3c-.1.1 0 .1 0 0v.1-.1zm.3-1.6v1.7h-.1l-.1-.1v.2h.2v-1.8l-.2-.1v.1h.2zm0-10.7V24h-.5v-1.8h-.1v1.9h.6v-1.9zm-.3 8.9h-.2v-1.7h.2v-.1h-.3v1.8h.3zm.3 0h-.2v.1l.2-.1.1-1.8h-.3v.1h.2v1.7zm3.2-16.6l-.3-.4c0-.1 0-.1-.1-.2 0 0-.1-.1-.2-.1s-.1 0-.2.1c0 0-.1.1-.1.2s0 .1.1.2c0 0 .1.1.2.1l.3.5-.4.3c-.1 0-.1 0-.2.1 0 0-.1.1-.1.2s0 .1.1.2c0 0 .1.1.2.1s.1 0 .2-.1c0 0 .1-.1.1-.2l.4-.3V15l-.1-.1-.4.2c0 .1 0 .1-.1.2 0 0-.1.1-.2.1s-.1 0-.2-.1c0 0-.1-.1-.1-.2s0-.1.1-.2c0-.1.1-.1.2-.1l.4-.3-.3-.5c-.1 0-.1 0-.2-.1 0 0-.1-.1-.1-.2s0-.1.1-.2c0 0 .1-.1.2-.1s.1 0 .2.1c0 0 .1.1.1.2l.4.8zm.6 1.4c.1 0 .2 0 .2-.1.1-.1.1-.1.1-.2s0-.2-.1-.2c-.1-.1-.1-.1-.2-.1l-.4-.5.4-.3c.1 0 .1 0 .2-.1 0 0 .1-.1.1-.2s0-.1-.1-.2c0 0-.1-.1-.2-.1s-.1 0-.2.1c0 0-.1.1-.1.2l-.4.3.4-.2c0-.1 0-.1.1-.2 0 0 .1-.1.2-.1s.1 0 .2.1c.1 0 .1.1.1.2s0 .1-.1.2c0 0-.1.1-.2.1l-.4.2.4.5c.1 0 .2 0 .3.1.1.1.1.2.1.3 0 .1 0 .2-.1.2s-.2.1-.3 0h-.1s-.1 0-.1-.1c-.1-.1-.1-.2-.1-.2v-.2l-.3-.4.3.5v.2c0 .1 0 .2.1.2h.2"/><path class="st8" d="M122.4 14.9l.4-.3-.3-.5s-.1 0-.1-.1l-.1-.1c0-.1 0-.1.1-.2l.1-.1c.1 0 .1 0 .2.1 0 0 .1.1.1.2l.3.5v-.1c-.1-.1-.2-.3-.2-.4 0-.1 0-.2-.1-.2-.1-.1-.1-.1-.2-.1s-.2 0-.2.1-.1.1-.1.2 0 .1.1.2c0 0 .1.1.2.1 0 0 .2.4.3.4-.2.1-.5.2-.5.3 0-.1 0-.1 0 0l-.1-.1c-.1 0-.2 0-.2.1-.1.1-.1.1-.1.2s0 .2.1.2c.1.1.1.1.2.1s.1 0 .2-.1c0 0 .1-.1.1-.2l.3-.2.1.1v-.1l-.1-.1-.4.3s0 .1-.1.1l-.1.1c-.1 0-.1 0-.2-.1 0 0-.1-.1-.1-.2s0-.1.1-.1c0 0 .1-.1.2-.1l.1.1zm.6-.4l.4-.3c0-.1 0-.1.1-.1l.1-.1c.1 0 .1 0 .2.1l.1.1c0 .1 0 .1-.1.2 0 0-.1.1-.2.1l-.4.3.4.6c.1 0 .2 0 .2.1.1.1.1.1.1.2s0 .2-.1.2c-.1.1-.1.1-.2.1h-.1s-.1 0-.1-.1c-.1-.1-.1-.1-.1-.2v-.2l-.3-.5v.1c.1.1.2.3.2.4v.2c0 .1 0 .2.1.3l.1.1h.1c.1 0 .2 0 .3-.1.1-.1.1-.2.1-.3 0-.1 0-.2-.1-.3-.1-.1-.2-.1-.3-.1 0 0-.3-.4-.3-.5.1 0 .3-.2.3-.2.1 0 .2 0 .2-.1.1-.1.1-.1.1-.2s0-.1-.1-.2-.1-.1-.2-.1-.1 0-.2.1c0 0-.1.1-.1.2.2-.1-.1.1-.2.2v-.1.1z"/><path class="st8" d="M122.4 14.9l.4-.3v-.1l-.3-.5s-.1 0-.1-.1l-.1-.1c0-.1 0-.1.1-.1l.1-.1c.1 0 .1 0 .1.1l.1.1.3.5v-.1c-.1-.1-.3-.4-.3-.4 0-.1 0-.1-.1-.2s-.1-.1-.2-.1-.1 0-.2.1-.1.1-.1.2 0 .1.1.2c0 0 .1.1.2.1l.3.4c0 .2-.3.4-.3.4l-.1-.1c-.1 0-.1 0-.2.1 0 .1-.1.1-.1.2s0 .1.1.2.1.1.2.1.1 0 .2-.1c0 0 .1-.1.1-.2 0 0 .3-.2.4-.2 0 0 0 .1.1.1v-.1h-.1l-.4.3s0 .1-.1.1l-.1.1c-.1 0-.1 0-.1-.1l-.1-.1s0-.1.1-.1l.1-.1v-.1c0 .1 0 .1 0 0m.6-.4l.4-.3c0-.1 0-.1.1-.1l.1-.1c.1 0 .1 0 .1.1l.1.1c0 .1 0 .1-.1.1l-.1.1-.4.3v.1l.4.5h.1c.1 0 .2 0 .2.1.1.1.1.1.1.2s0 .2-.1.2c-.1.1-.1.1-.2.1s-.2 0-.2-.1c-.1-.1-.1-.1-.1-.2v-.2l-.3-.5v.1c.1.1.3.4.3.4v.2c0 .1 0 .2.1.3.1.1.2.1.3.1.1 0 .2 0 .3-.1.1-.1.1-.2.1-.3 0-.1 0-.2-.1-.3-.1-.1-.2-.1-.3-.1 0 0-.3-.4-.3-.5l.3-.2c.1 0 .1 0 .2-.1 0-.1.1-.1.1-.2s0-.1-.1-.2-.1-.1-.2-.1-.1 0-.2.1c0 0-.1.1-.1.2-.1 0-.4.2-.5.3v-.1.1zm2.7 7.1h-.4v-.8h.4v-.1h-.5v1l.5-.1zm.4 0h-.4v.1l.4-.1.1-.9h-.5v.1h.4v.8zm-7.3-2.9h.1v3.5h-.1zm9.5.1h.1v3.4h-.1zm-8.1-.7c0-.1.1-.1.1-.1v-.1c-.1 0-.2.1-.1.2-.1.1 0 .2.1.2v-.1c0 .1-.1 0-.1-.1m.2-.1c.1 0 .1.1.1.1 0 .1-.1.1-.1.1v.1c.1 0 .2-.1.2-.2s-.1-.2-.2-.1zm6.3.1c0-.1.1-.1.1-.1v-.1c-.1 0-.2.1-.1.2-.1.1 0 .2.1.2v-.1c-.1.1-.1 0-.1-.1m.1-.1c.1 0 .1.1.1.1 0 .1-.1.1-.1.1v.1c.1 0 .2-.1.2-.2s-.1-.2-.2-.1zm-3.5-.8c0-.2.1-.3.3-.3v-.1c-.2 0-.4.2-.3.4-.1.2.1.4.3.4v-.1c-.2 0-.3-.1-.3-.3m.3-.3c.2 0 .3.1.3.3 0 .2-.1.3-.3.3v.1c.2 0 .4-.2.4-.4s-.2-.4-.4-.3zm-2.2 1.1c0-.1.1-.2.2-.2v-.1c-.1 0-.2.2-.2.3-.1.2.1.3.2.3v-.1c-.1.1-.2 0-.2-.2m.3-.2c.1 0 .2.1.2.2s-.1.2-.2.2v.1c.2 0 .3-.1.3-.3 0-.1-.2-.3-.3-.2zm3.6.2c0-.1.1-.2.2-.2v-.1c-.2 0-.3.1-.2.3-.1.2.1.3.2.3v-.1c-.1 0-.2-.1-.2-.2m.2-.3c.1 0 .2.1.2.2s-.1.2-.2.2v.1c.2 0 .3-.1.3-.3 0-.1-.1-.2-.3-.2z"/><path class="st8" d="M121.9 15.9h3.3v.1h-3.3zm3.3.1l2.3 1.6.1.7h.1l-.1-.7-2.4-1.6zm.3 2.4l-.6 1.5h.1s.5-1.3.6-1.5c.1.2.6 1.4.6 1.4h.2v-.9c0-.3.2-.5.5-.5s.5.2.5.5V20h.2s.3-.9.3-1.1c.1.2.4 1.1.4 1.1h.1l-.4-1.3-.4 1.2h-.1V19c0-.3-.3-.6-.6-.6s-.6.3-.6.6v.8h-.1c-.1 0-.7-1.5-.7-1.4z"/><path class="st8" d="M118.9 19.9h9.4v.1h-9.4zm8.8-1.5c0-.1.1-.1.1-.1v-.1c-.1 0-.2.1-.1.2-.1.1 0 .2.1.2v-.1c-.1.1-.1 0-.1-.1m.1-.1c.1 0 .1.1.1.1 0 .1-.1.1-.1.1v.1c.1 0 .2-.1.2-.2s-.1-.2-.2-.1zm.4.3c0-.1.1-.1.1-.1v-.1c-.1 0-.2.1-.1.2-.1.1 0 .2.1.2v-.1c-.1 0-.1 0-.1-.1m.1-.1c.1 0 .1.1.1.1 0 .1-.1.1-.1.1v.1c.1 0 .2-.1.2-.2s-.1-.2-.2-.1zm-3.6-2.2c.7.1 1.3.4 1.8.8s.9.8 1.1 1.4c-.3-.6-.7-1.1-1.1-1.4-.5-.4-1.1-.6-1.8-.8z"/><path class="st8" d="M124.7 16.3c0 .1 0 .1 0 0 .7.2 1.3.5 1.8.8.5.4.8.8 1.1 1.4v-.1c-.3-.6-.7-1.1-1.2-1.4-.4-.3-1-.6-1.7-.7zm0-.5v6.6-6.6zm-2.3 3c.1-.6.6-1.1 1.1-1.1.6 0 1.1.5 1.1 1.1h.1c0-.6-.5-1.2-1.1-1.2-.7.1-1.2.6-1.2 1.2"/><path class="st8" d="M124.2 15.9h.1v2h-.1zm.4 0h.1v6.3h-.1zm3 4.7v1.1h.7v-.1h-.7v-.9h.7v-.1zm-1 .9v-.6c0-.1 0-.1.1-.1h.2v-.1h-.2c-.1 0-.2.1-.2.2l.1.6c-.1.1 0 .2.1.2h.2v-.1l-.3-.1c.1.1 0 0 0 0m.4-.8h.2s.1 0 .1.1v.6s0 .1-.1.1h-.2v.1h.2c.1 0 .2-.1.2-.2v-.6c0-.1-.1-.2-.2-.2l-.2.1zm-3.5-.1c0 .1.8.4.8.7v.1c-.1.1-.2.1-.5.1h-.2.2c.3 0 .5-.1.6-.2.1-.1.1-.2.1-.2-.1-.2-.9-.5-1-.5.1-.1.1-.1 0 0"/><path class="st8" d="M123.6 20.5s-.9.4-.8.8c0 0 0 .1.1.2s.3.2.6.2h.2-.2c-.3 0-.5-.1-.5-.1l-.1-.1c-.1-.5.7-.9.7-1 0 .1 0 .1 0 0m-1.9-2.1s-.6 1.4-.6 1.5h-.1v-.8c0-.3-.3-.6-.6-.6s-.6.3-.6.6v.8h-.1c0-.1-.4-1.2-.4-1.2l-.4 1.3h.1s.3-.9.4-1.1c.1.2.3 1.1.3 1.1h.2v-.9c0-.3.2-.5.5-.5s.5.2.5.5v.9h.2s.5-1.3.6-1.4c.1.2.6 1.5.6 1.5h.1l-.7-1.7zm1.2-2.5h.1v2h-.1zm-.5 0h.1v6.3h-.1zm-2.8 1.6l-.2.7h.1s.1-.6.1-.7c.1 0 2.3-1.6 2.3-1.6v-.1l-2.3 1.7z"/><path class="st8" d="M122.4 16.3c-.7.1-1.3.4-1.8.8s-.9.8-1.1 1.4c.3-.6.7-1 1.1-1.4.5-.4 1.1-.7 1.8-.8z"/><path class="st8" d="M120.6 17c-.5.4-.9.8-1.2 1.4.5-.5.8-1 1.2-1.4.5-.3 1.1-.5 1.8-.7v-.1c-.7.2-1.3.4-1.8.8m-1.8 1.5c0-.1 0-.1.1-.1v-.1c-.1 0-.2.1-.1.2-.1.1 0 .2.1.2v-.1c-.1 0-.1 0-.1-.1m.1-.1c.1 0 .1.1.1.1 0 .1-.1.1-.1.1v.1c.1 0 .2-.1.2-.2s-.1-.2-.2-.1z"/><path class="st8" d="M119.2 18.4c0-.1.1-.1.1-.1v-.1c-.1 0-.2.1-.1.2-.1.1 0 .2.1.2v-.1c0 .1-.1 0-.1-.1m.1-.1c.1 0 .1.1.1.1 0 .1-.1.1-.1.1v.1c.1 0 .2-.1.2-.2.1-.1 0-.2-.2-.1zm2.2 3.3h-.5v-.8h.4v-.1h-.5v1l.6-.1zm.4 0h-.4v.1l.4-.1.1-.9h-.5v.1h.4v.8zm-2.4-1h-.6v.1h.6v.9h-.6v.1h.7v-1.1zm.4.9v-.7c0-.1 0-.1.1-.1h.2v-.1h-.2c-.1 0-.2.1-.2.2l.1.7c-.1.1 0 .2.1.2h.2v-.1l-.3-.1c0 .1 0 0 0 0m.3-.8h.2c.1 0 .1 0 .1.1v.7s0 .1-.1.1h-.2v.1h.2c.1 0 .2-.1.2-.2v-.7c0-.1-.1-.2-.2-.2l-.2.1zm-1.3-.4h9.4v.1h-9.4zm0 1.5h9.4v.1h-9.4zm9.4.4h-.3.5zm-4.2 6h.1v3.5h-.1zm.1-6h-.6v9.5h.1v-9.5h.4V27h.1v-4.8zm2.7 5.9c-.1 0-.1 0 0 0l-.1 2.1h.1v-2.1zm-.4-5.9h.1v-.1h-.3v.9h.3-.2v-.7h.1zm.1 0h.2v.8h-.2.3v-.9l-.3.1zm-2 5.9h-.3l-.1.1v.1l.1-.1c.1 0 .2-.1.3-.1l.1.1v-.1h-.1z"/><path class="st8" d="M124.7 22.2h-.6v4.9l.1.1h.4v-1.4h-.1v1.3h-.5v-4.8l.7-.1v2.4h.1l-.1-2.4zm2.4 4.9h-.2v-1.4h.2v-.1h-.3v1.6l.3-.1zm.3 0h-.2v.1l.2-.1.1-1.5h-.3v.1h.2v1.4zm0 1h-.5.5v2.1-2.1zm-.4-5.9h.2v-.1h-.3v.9h.1s0 .1-.1.1v1.6h.3v-.1h-.2v-1.5c0-.1 0-.1.1-.2v-.1h-.1v-.6zm.1 0h.2v2.4h-.2v.1h.3v-2.6l-.3.1zm.9 5.9h-.6.5v3.8h.1v-3.8z"/><path class="st8" d="M127.4 25.7h.2v-.1s-.1 0-.2.1l-.1 1.5h.3v-.1h-.2v-1.4zm.3 0c.1 0 .2.1.2.1v1.3h-.2v.1h.3v-1.4c-.1-.1-.2-.1-.3-.1zm-.2-3.5h.2v-.1h-.3v2.6h.3v-.1h-.2v-2.4zm.2 0h.2v2.3c-.1 0-.1.1-.2.1h-.1v.1h.1c.1 0 .2-.1.2-.1v-2.5l-.2.1zm-2.5 5.9h-.5v3.8-3.8h.5v2.1h.1v-2.1zm-.3-2.4c-.1-.1-.2 0-.2 0v1.4h.3V27h-.2v-1.3c0 .1 0 .1.1 0m.1 0h.2v1.4h-.2v.1h.3v-1.6c-.2 0-.3 0-.3.1zm-.2-3.5h.2v-.1h-.3v2.5c.1 0 .1.1.2.1h.1v-.1h-.1c-.1 0-.1 0-.2-.1l.1-2.3zm.2 0h.2v2.4h-.2v.1h.3v-2.6l-.3.1z"/><path class="st8" d="M125.5 27.1h-.2v-1.4h.2v-.1h-.3v1.6l.3-.1zm.2 0h-.2v.1l.2-.1.1-1.5h-.3v.1h.2v1.4zm-.5 1h.5v.1h-.5zm.2-5.9l-.2-.1v2.6h.3v-.1h-.2v-2.4h.1zm.1 0h.2v.8h-.1v.1c0 .1.1.1.1.2v1.4h-.2v.1h.3v-1.6c0-.1 0-.1-.1-.2h.1v-.9l-.3.1z"/><path class="st8" d="M125.9 22.2h.1v-.1h-.3v.9h.3-.2v-.7h.1zm.2 0h.2v.8h-.2.3v-.9l-.3.1zm-.3 5.9c-.1 0-.1 0 0 0v2.1h.1l-.1-2.1zm2.2 0c.2.1.3.1.4.1.1 0 .1 0 .2.1v-.1c-.1 0-.1-.1-.2-.1h-.4zm.4-1c-.2 0-.3.1-.4.1h-.1v.1h.4l.1-.2h.1-.1zm-4.2 1.1V27v1.2zm-.1-1.2h.1v1.2h-.1zm0-4.8h-.5v14.3-14.3h.6zm4.2 0h-.4v4.3h.1v-4.3h.5zm-3.7 13.9c-.1 0-.5.2-.5.2v.1l.5-.3c0 .1.1 0 0 0z"/><path class="st8" d="M124.7 22.2h-.6v9.6h.1v-9.6h.5v4.1-4.1zm4.2 0h-.4v9.6h.1v-9.5h.4v9.2c0 .2 0 .4-.1.5v.1c-.1.4-.2.7-.4 1.1h.1c.2-.3.3-.7.4-1.1V32c0-.2.1-.4.1-.5v-9.4s0-.1-.1-.1h-.1zm-2.8 8c.1 0 .1 0 0 0 .1 0 .1-.1 0 0 0-.1-.1-.2-.1-.2v-.1l.1-.1h.1v-.1h-.1c-.1 0-.1.1-.2.1 0 0-.1.1-.1.2v.1h-.1c-.1 0-.1 0-.2.1v.1s0 .1-.1.1l.1.1s0 .1.1.1c0 .1.1.1.2.1h.1c0 .1-.1.1-.2.2-.1 0-.1 0-.2-.1l-.1.1h-.2l-.1-.1v-.1h.1s.1-.1.1-.2v-.1l-.1-.1s0-.1-.1-.1h-.1s-.1 0-.1.1c0 0 0-.1-.1-.1h-.3v.1c.1.2.2.6.2.9h1.3V31h-1.2c0-.3-.1-.7-.2-.9h.1v.2h.2s0 .1.1.1c0 0 0 .1.1.1v.2h-.1l-.1-.1h-.1v.1c0 .1 0 .1.1.2 0 .1.1.1.2.1h.3c.1.1.2.1.3 0 .1 0 .2-.1.2-.3v-.1h-.1c-.1 0-.1.1-.2.1 0 0-.1 0-.1-.1 0 0 0-.1-.1-.1v-.1l.1-.1v-.1l.1-.1c.4.1.4.1.5.1m.2-.4c.1.1.2.1.2.1v.1s0 .1-.1.1h.1c.1 0 .1-.1.1-.1s.1 0 .1.1v.1s0 .1.1.1v.1s0 .1-.1.1l-.1.1s-.1 0-.2-.1h-.1v.1c.1.1.1.2.2.3h.6c.1 0 .1-.1.1-.1s.1-.1.1-.2v-.1h-.1l-.1.1h-.1v-.2l.1-.1s0-.1.1-.1h.3V30h.1c-.1.2-.2.6-.2.9h-1.2v.1h1.3c0-.4.1-.8.2-.9l.1-.1h-.3s0 .1-.1.1l-.1-.1h-.1c-.1 0-.1.1-.1.1s0 .1-.1.1v.1c0 .1 0 .2.1.2h.2v.1l-.1.1h-.1l-.1-.1c-.1.1-.2.1-.2.1-.1 0-.1-.1-.1-.2h.1c.1 0 .1 0 .2-.1 0 0 0-.1.1-.1l.1-.1-.1-.1V30c0-.1-.1-.1-.2-.1h-.1v-.1c0-.1 0-.1-.1-.2 0 0-.1-.1-.2-.1l-.2.3z"/><path class="st8" d="M126.3 31.4h-1.2v-.3h1.2V31H125v.5l1.3-.1zm1.2-.3v.3h-1.2v.1h1.2v-.3c.1 0 .1-.2 0-.1l-1.2-.1v.1h1.2zm-1.7 4.6l-.5.2.5-.1.1-.1z"/><path class="st8" d="M123.6 33.4c0 .1 0 .1 0 0 0 .1 0 .1 0 0 0 .1 2.1 2.2 2.2 2.3 0 0-.4.1-.5.2l-1.7-1.7v.1l1.7 1.7.5-.2h.1l-2.3-2.4m2.8 2l-.1.1-.2.1-.2.1.2-.1.3-.1v-.1z"/><path class="st8" d="M123.6 32.7c0 .1 2.7 2.7 2.7 2.8l-.3.1s-.1.1-.2.1l-2.2-2.2v.1l2.2 2.2.2-.1.3-.1h.1l-2.8-2.9c0-.1 0-.1 0 0m0-.6c.1 0 .1-.1 0 0z"/><path class="st8" d="M123.6 32.1h.1V32zm0 2.1c0 .1 1.6 1.6 1.6 1.7l-.5.2-1.1-1v.1l1.1 1.1.5-.2-1.6-1.9"/><path class="st8" d="M125.3 35.9l-.6.2.6-.1v-.1zm-.6.2h-.1l-.4.1h-.1v.1h.1l.4-.1.1-.1z"/><path class="st8" d="M123.6 35s.9 1 1 1.1l-.5.1-.5-.5.5.5h.1l.4-.1h.1l-1.1-1.1m.1-3c-.1 0 0 0 0 0 .1.1 3.1 3.1 3.1 3.2-.1.1-.3.2-.4.2l-2.8-2.8h-.1v.1l2.8 2.8c.2-.1.3-.2.5-.3l-3.1-3.2"/><path class="st8" d="M126.4 35.4c.2 0 .3-.1.5-.2v-.1c-.2.1-.3.2-.5.3m2.1-2.2l-.2.3.1.1.2-.3.1-.2-.1-.1z"/><path class="st8" d="M127 31.5l.5.5v-.1l-.5-.4-.8-.1 1.3 1.3v-.1l-1.1-1.1h.6zm.5.4l1.1 1.1-.1.2-.1.2-.9-.9v.1l.9.9.2-.3.1-.2-1.2-1.2v.1z"/><path class="st8" d="M128.6 33c.2-.2.2-.3.3-.5h-.1c-.1.2-.1.4-.2.5"/><path class="st8" d="M127.4 31.4l-.3.1.3.3v.1l-.5-.5h.5zm.4.7s.1-.2.4-.3l.1.1v-.1l-.1-.1c-.2.1-.3.2-.4.2 0-.1-.1-.4-.3-.6h-.1v.1h.1c.2.4.2.7.3.7-.2-.1-.3-.2-.4-.3v.1l.9.9v-.1c-.2-.2-.3-.4-.5-.6m.5-.1l.5.5c-.1.2-.1.3-.2.5 0 0-.1-.2-.3-.3v.1l.4.4c.1-.2.2-.4.2-.6l-.6-.6zm-2.1-.5l.7.7v-.1l-.7-.6-.9-.1 1.6 1.6v-.1l-1.4-1.4h.7zm.7.7l1.4 1.4c-.1.1-.2.3-.3.4l-1.1-1.1v.1l1.1 1.1c.1-.2.2-.3.3-.5l-1.5-1.5v.1z"/><path class="st8" d="M128 34c.2-.1.3-.3.4-.4h-.1c-.1.1-.2.3-.3.4m-3-1.9s0-.1.1-.3l1 1v-.1l-1-1c-.2.1-.2.2-.1.4-.2-.2-.4-.4-.7-.3h-.1l1.8 1.8v-.1l-1.7-1.7c.4 0 .6.3.7.3v.1-.1zm1 .7l1.7 1.7-.3.3-.1.1-1.3-1.3v.1l1.3 1.3.2-.1.3-.3-1.7-1.7v-.1z"/><path class="st8" d="M127.4 34.7l-.1.1v.1l.2-.1.3-.3-.1-.1zm-3.2-2.9l1.3 1.3V33l-1.3-1.2c-.2-.1-.4 0-.5.2l1.9 1.9v-.1l-1.7-1.7c0-.2.2-.3.3-.3m1.3 1.3l1.7 1.7c-.1.1-.2.2-.4.3l-1.4-1.4v.1l1.4 1.4c.1-.1.3-.2.4-.3l-1.9-1.9v.1z"/><path class="st8" d="M126.9 35.1c.2 0 .3-.1.5-.3l-.1-.1c-.1.2-.3.3-.4.4m-1.4-3.6l1.1 1.1v-.1l-1.1-1-.3-.1c-.1.1-.1.2-.2.3l1.6 1.6v-.1l-1.5-1.5c0-.1.1-.2.1-.2h.3zm1 1.1l1.5 1.5v.1l-.1.1s-.1.1-.1.2l-1.2-1.2v.1l1.2 1.2.2-.2.1-.1v-.2l-1.6-1.6v.1z"/><path class="st8" d="M128 34.1h-.1v.1l-.2.2.1.1.1-.2.1-.1.1-.1-.1-.1zm0-2.3c.4-.1.8.1.9.2l.1-.1c-.2-.1-.5-.3-1-.1"/><path class="st4" d="M146.6 40.3h70v6.9h-70z"/><path class="st9" d="M146.6 40.3h70v6.9h-70z"/><text transform="translate(149.178 45.672)"><tspan x="0" y="0" class="st1 st10 st11">BE</tspan><tspan x="7.4" y="0" class="st1 st10 st11">FE</tspan><tspan x="14.3" y="0" class="st1 st10 st11">KTE</tspan><tspan x="25" y="0" class="st1 st10 st11">TÉS </tspan><tspan x="37.1" y="0" class="st1 st10 st11">A JÖVŐB</tspan><tspan x="61.3" y="0" class="st1 st10 st11">E</tspan></text><text transform="translate(148.724 28.14)" class="st8 st12 st13">Európai Strukturális</text><text transform="translate(148.724 34.217)" class="st8 st12 st13">Fejlesztési Alap</text><path class="st14" d="M204.5 63.1c-4.8 0-8.6 3.9-8.6 8.6 0 2.9 2.2 6.4 2.8 7.3.6.9 5.3 7.7 5.8 7.7s5.2-6.8 5.8-7.7c.6-.9 2.8-4.4 2.8-7.3 0-4.8-3.8-8.6-8.6-8.6"/><path class="st15" d="M209 80.9c-1.6 2.3-4.1 5.7-4.5 5.8l5-1.7c.8-.3 1.4-.6 1.7-1.1.8-1.1-.2-2.4-2.2-3"/><defs><path id="SVGID_5_" d="M195.9 71.7c0 2.9 2.2 6.4 2.8 7.3.6.9 5.3 7.7 5.8 7.7V63.1c-4.8 0-8.6 3.8-8.6 8.6"/></defs><clipPath id="SVGID_6_"><use xlink:href="#SVGID_5_" overflow="visible"/></clipPath><linearGradient id="SVGID_7_" gradientUnits="userSpaceOnUse" x1="-305.038" y1="364.954" x2="-303.659" y2="364.954" gradientTransform="matrix(0 -17.1585 -17.1585 0 6462.258 -5147.273)"><stop offset="0" stop-color="#005a98"/><stop offset="1" stop-color="#026bb1"/></linearGradient><path class="st16" d="M195.9 63.1h8.6v23.7h-8.6z"/><path class="st1" d="M199.8 70.5v.2c0 .3-.1.6-.4.9l-1.6 1.5h2v.4h-2.5v-.4l1.9-1.8c.2-.2.3-.5.3-.7 0-.2-.1-.4-.3-.6-.2-.2-.4-.2-.6-.2-.2 0-.4.1-.6.3-.2.2-.3.4-.3.6v.1h-.4v-.1c0-.4.1-.6.4-.9.3-.2.6-.4.9-.4.3 0 .6.1.9.3.2.2.3.4.3.8m4.7.9c0 .6-.2 1.1-.6 1.5-.4.4-.9.6-1.5.6s-1.1-.2-1.5-.6c-.4-.4-.6-.9-.6-1.5s.2-1.1.6-1.5c.4-.4.9-.6 1.5-.6s1.1.2 1.5.6c.4.4.6.9.6 1.5m-.4 0c0-.5-.2-.9-.5-1.2-.3-.3-.8-.5-1.2-.5-.5 0-.9.2-1.2.5-.3.3-.5.7-.5 1.2s.2.9.5 1.2c.3.3.7.5 1.2.5s.9-.2 1.2-.5c.3-.3.5-.7.5-1.2m3.6-.9v.2c0 .3-.1.6-.4.9l-1.6 1.5h2v.4h-2.5v-.4l1.9-1.8c.2-.2.3-.5.3-.7 0-.2-.1-.4-.3-.6-.2-.2-.4-.2-.6-.2-.2 0-.4.1-.6.3-.2.2-.3.4-.3.6v.1h-.4v-.1c0-.4.1-.6.4-.9.3-.2.6-.4.9-.4.3 0 .6.1.9.3.1.2.2.4.3.8m4.5.9c0 .6-.2 1.1-.6 1.5-.4.4-.9.6-1.5.6s-1.1-.2-1.5-.6c-.4-.4-.6-.9-.6-1.5s.2-1.1.6-1.5c.4-.4.9-.6 1.5-.6s1.1.2 1.5.6c.4.4.6.9.6 1.5m-.4 0c0-.5-.2-.9-.5-1.2-.3-.3-.8-.5-1.2-.5-.5 0-.9.2-1.2.5-.3.3-.5.7-.5 1.2s.2.9.5 1.2c.3.3.7.5 1.2.5s.9-.2 1.2-.5c.4-.3.5-.7.5-1.2"/><path class="st17" d="M143.6 73.4l1-.7c.5.5 1 .7 1.6.7.2 0 .4 0 .6-.1.2-.1.4-.3.4-.5 0-.3-.2-.4-.6-.5l-1.1-.2c-1-.2-1.6-.7-1.6-1.6 0-.7.2-1.2.7-1.5.4-.3.9-.5 1.5-.5 1 0 1.8.4 2.4 1.1l-1 .8c-.4-.5-.9-.7-1.5-.7-.2 0-.3.1-.5.2s-.3.3-.3.4c0 .3.3.5.8.6l.5.1c.6.1 1.1.3 1.4.5.4.3.6.7.6 1.2 0 .8-.3 1.3-.9 1.7-.4.3-1 .4-1.6.4-.9-.2-1.7-.6-2.4-1.4m7.7-.1h3v1.1h-4.7v-1.1l3-3.6h-2.8v-1.2h4.5v1.2zm8.6 1.1h-4.2v-5.8h4v1.1H157v1.1h2.5v1.1H157v1.4h2.9v1.1zm-2.8-6.6l.8-1.2h1.4l-1.2 1.2h-1zm8.7 2.1l-1.1.6c-.1-.3-.2-.5-.5-.6-.2-.2-.4-.2-.7-.2-.4 0-.7.1-1 .4-.3.3-.4.8-.4 1.4 0 .5.1.9.3 1.2.2.4.6.6 1.1.6.2 0 .4-.1.6-.2.2-.2.4-.3.5-.6l1.1.6c-.2.5-.5.8-.9 1.1-.4.3-.8.4-1.3.4-.8 0-1.5-.3-2-.9-.5-.6-.7-1.3-.7-2.2 0-.9.2-1.6.7-2.2.5-.6 1.1-.9 2-.9 1 0 1.8.5 2.3 1.5m1.2 4.5v-5.9h1.3v2.1h2.1v-2.1h1.3v5.9h-1.3v-2.5h-2.1v2.5zm10.8 0h-4.2v-5.9h4v1.2h-2.7v1h2.5v1.2h-2.5v1.4h2.9zm1.5 0v-5.9h1.4l2 3.8v-3.8h1.2v5.9h-1.3l-2-3.7v3.7zm7.8 0v-2.7l-2.1-3.2h1.6l1.2 2.1 1.1-2.1h1.6l-2.1 3.2v2.7zm4.5-5.9h1.4v5.8h-1.4z"/><defs><path id="SVGID_8_" d="M.8 16.8h67.7v96H.8z"/></defs><clipPath id="SVGID_9_"><use xlink:href="#SVGID_8_" overflow="visible"/></clipPath><path class="st18" d="M58.6 103.3c0-2.4-10.8-4.3-24.1-4.3s-24.1 1.9-24.1 4.3 10.8 4.3 24.1 4.3c13.3-.1 24.1-2 24.1-4.3"/><path class="st18" d="M58.3 103.3c0-2.3-10.6-4.2-23.8-4.2-13.1 0-23.8 1.9-23.8 4.2 0 2.3 10.6 4.2 23.8 4.2 13.1 0 23.8-1.9 23.8-4.2"/><path class="st18" d="M57.9 103.3c0-2.3-10.5-4.1-23.4-4.1-12.9 0-23.4 1.9-23.4 4.1 0 2.3 10.5 4.1 23.4 4.1 12.9 0 23.4-1.9 23.4-4.1"/><path class="st18" d="M57.6 103.3c0-2.3-10.3-4.1-23.1-4.1-12.7 0-23.1 1.8-23.1 4.1s10.3 4.1 23.1 4.1c12.7-.1 23.1-1.9 23.1-4.1"/><path class="st19" d="M57.2 103.3c0-2.2-10.2-4-22.7-4s-22.7 1.8-22.7 4 10.2 4 22.7 4 22.7-1.8 22.7-4"/><path class="st20" d="M56.9 103.3c0-2.2-10-4-22.4-4-12.4 0-22.4 1.8-22.4 4s10 4 22.4 4c12.4-.1 22.4-1.9 22.4-4"/><path class="st20" d="M56.5 103.3c0-2.2-9.9-3.9-22-3.9-12.2 0-22 1.7-22 3.9s9.9 3.9 22 3.9c12.2 0 22-1.8 22-3.9"/><path class="st20" d="M56.2 103.3c0-2.1-9.7-3.8-21.7-3.8s-21.7 1.7-21.7 3.8c0 2.1 9.7 3.8 21.7 3.8s21.7-1.7 21.7-3.8"/><path class="st21" d="M55.8 103.3c0-2.1-9.5-3.8-21.3-3.8s-21.3 1.7-21.3 3.8c0 2.1 9.5 3.8 21.3 3.8 11.8-.1 21.3-1.8 21.3-3.8"/><path class="st22" d="M55.5 103.3c0-2-9.4-3.7-21-3.7s-21 1.7-21 3.7 9.4 3.7 21 3.7 21-1.7 21-3.7"/><path class="st22" d="M55.1 103.3c0-2-9.2-3.7-20.6-3.7-11.4 0-20.6 1.6-20.6 3.7 0 2 9.2 3.7 20.6 3.7 11.4-.1 20.6-1.7 20.6-3.7"/><path class="st22" d="M54.8 103.3c0-2-9.1-3.6-20.3-3.6-11.2 0-20.3 1.6-20.3 3.6s9.1 3.6 20.3 3.6 20.3-1.7 20.3-3.6"/><path class="st23" d="M54.4 103.3c0-1.9-8.9-3.5-19.9-3.5-11 0-19.9 1.6-19.9 3.5s8.9 3.5 19.9 3.5c11 0 19.9-1.6 19.9-3.5"/><path class="st23" d="M54.1 103.3c0-1.9-8.8-3.5-19.6-3.5s-19.6 1.6-19.6 3.5 8.8 3.5 19.6 3.5c10.8-.1 19.6-1.6 19.6-3.5"/><path class="st23" d="M53.7 103.3c0-1.9-8.6-3.4-19.2-3.4s-19.2 1.5-19.2 3.4 8.6 3.4 19.2 3.4 19.2-1.6 19.2-3.4"/><path class="st24" d="M53.4 103.3c0-1.8-8.4-3.3-18.9-3.3-10.4 0-18.9 1.5-18.9 3.3 0 1.8 8.4 3.3 18.9 3.3 10.4 0 18.9-1.5 18.9-3.3"/><path class="st24" d="M53 103.3c0-1.8-8.3-3.3-18.5-3.3S16 101.5 16 103.3c0 1.8 8.3 3.3 18.5 3.3 10.2-.1 18.5-1.5 18.5-3.3"/><path class="st24" d="M52.7 103.3c0-1.8-8.1-3.2-18.2-3.2-10 0-18.2 1.4-18.2 3.2 0 1.8 8.1 3.2 18.2 3.2 10 0 18.2-1.5 18.2-3.2"/><path class="st24" d="M52.3 103.3c0-1.7-8-3.2-17.8-3.2s-17.8 1.4-17.8 3.2c0 1.7 8 3.2 17.8 3.2s17.8-1.5 17.8-3.2"/><path class="st25" d="M52 103.3c0-1.7-7.8-3.1-17.5-3.1-9.6 0-17.5 1.4-17.5 3.1 0 1.7 7.8 3.1 17.5 3.1 9.7-.1 17.5-1.4 17.5-3.1"/><path class="st25" d="M51.6 103.3c0-1.7-7.7-3-17.1-3-9.5 0-17.1 1.4-17.1 3s7.7 3 17.1 3c9.5 0 17.1-1.4 17.1-3"/><path class="st25" d="M51.3 103.3c0-1.6-7.5-3-16.8-3s-16.8 1.3-16.8 3c0 1.6 7.5 3 16.8 3 9.3-.1 16.8-1.4 16.8-3"/><path class="st25" d="M50.9 103.3c0-1.6-7.4-2.9-16.4-2.9-9.1 0-16.4 1.3-16.4 2.9 0 1.6 7.4 2.9 16.4 2.9 9.1 0 16.4-1.3 16.4-2.9"/><path class="st26" d="M50.6 103.3c0-1.6-7.2-2.8-16.1-2.8-8.9 0-16.1 1.3-16.1 2.8 0 1.6 7.2 2.8 16.1 2.8 8.9 0 16.1-1.3 16.1-2.8"/><path class="st27" d="M50.2 103.3c0-1.5-7-2.8-15.7-2.8s-15.7 1.2-15.7 2.8c0 1.5 7 2.8 15.7 2.8 8.7-.1 15.7-1.3 15.7-2.8"/><path class="st27" d="M49.9 103.3c0-1.5-6.9-2.7-15.4-2.7s-15.4 1.2-15.4 2.7c0 1.5 6.9 2.7 15.4 2.7s15.4-1.2 15.4-2.7"/><path class="st28" d="M49.5 103.3c0-1.5-6.7-2.7-15-2.7s-15 1.2-15 2.7c0 1.5 6.7 2.7 15 2.7 8.3-.1 15-1.3 15-2.7"/><path class="st28" d="M49.2 103.3c0-1.4-6.6-2.6-14.7-2.6s-14.7 1.2-14.7 2.6c0 1.4 6.6 2.6 14.7 2.6s14.7-1.2 14.7-2.6"/><path class="st28" d="M48.8 103.3c0-1.4-6.4-2.5-14.3-2.5s-14.3 1.1-14.3 2.5 6.4 2.5 14.3 2.5 14.3-1.1 14.3-2.5"/><path class="st29" d="M48.5 103.3c0-1.4-6.3-2.5-14-2.5s-14 1.1-14 2.5 6.3 2.5 14 2.5c7.7-.1 14-1.2 14-2.5"/><path class="st29" d="M48.1 103.3c0-1.3-6.1-2.4-13.6-2.4s-13.6 1.1-13.6 2.4c0 1.3 6.1 2.4 13.6 2.4s13.6-1.1 13.6-2.4"/><path class="st29" d="M47.8 103.3c0-1.3-5.9-2.4-13.3-2.4-7.3 0-13.3 1.1-13.3 2.4 0 1.3 5.9 2.4 13.3 2.4 7.3-.1 13.3-1.1 13.3-2.4"/><path class="st30" d="M47.4 103.3c0-1.3-5.8-2.3-12.9-2.3-7.1 0-12.9 1-12.9 2.3 0 1.3 5.8 2.3 12.9 2.3 7.1-.1 12.9-1.1 12.9-2.3"/><path class="st30" d="M47.1 103.3c0-1.2-5.6-2.2-12.6-2.2-6.9 0-12.6 1-12.6 2.2 0 1.2 5.6 2.2 12.6 2.2 6.9 0 12.6-1 12.6-2.2"/><path class="st30" d="M46.7 103.3c0-1.2-5.5-2.2-12.2-2.2-6.8 0-12.2 1-12.2 2.2 0 1.2 5.5 2.2 12.2 2.2 6.8-.1 12.2-1.1 12.2-2.2"/><path class="st31" d="M46.4 103.3c0-1.2-5.3-2.1-11.9-2.1-6.6 0-11.9.9-11.9 2.1 0 1.2 5.3 2.1 11.9 2.1 6.6 0 11.9-1 11.9-2.1"/><path class="st32" d="M46 103.3c0-1.1-5.2-2-11.5-2-6.4 0-11.5.9-11.5 2s5.2 2 11.5 2c6.4 0 11.5-.9 11.5-2"/><path class="st32" d="M45.7 103.3c0-1.1-5-2-11.2-2-6.2 0-11.2.9-11.2 2s5 2 11.2 2c6.2-.1 11.2-1 11.2-2"/><path class="st33" d="M45.3 103.3c0-1.1-4.8-1.9-10.8-1.9-6 0-10.8.9-10.8 1.9 0 1.1 4.9 1.9 10.8 1.9 6 0 10.8-.9 10.8-1.9"/><path class="st34" d="M45 103.3c0-1-4.7-1.9-10.5-1.9s-10.5.8-10.5 1.9c0 1 4.7 1.9 10.5 1.9 5.8-.1 10.5-.9 10.5-1.9"/><path class="st34" d="M44.6 103.3c0-1-4.5-1.8-10.1-1.8s-10.1.8-10.1 1.8 4.5 1.8 10.1 1.8c5.6-.1 10.1-.9 10.1-1.8"/><path class="st35" d="M44.3 103.3c0-1-4.4-1.7-9.8-1.7s-9.8.8-9.8 1.7c0 1 4.4 1.7 9.8 1.7s9.8-.8 9.8-1.7"/><path class="st35" d="M43.9 103.3c0-.9-4.2-1.7-9.4-1.7s-9.4.7-9.4 1.7c0 .9 4.2 1.7 9.4 1.7 5.2-.1 9.4-.8 9.4-1.7"/><path class="st36" d="M43.6 103.3c0-.9-4.1-1.6-9.1-1.6s-9.1.7-9.1 1.6c0 .9 4.1 1.6 9.1 1.6s9.1-.8 9.1-1.6"/><path class="st37" d="M43.2 103.3c0-.9-3.9-1.5-8.7-1.5-4.8 0-8.7.7-8.7 1.5 0 .9 3.9 1.5 8.7 1.5 4.8 0 8.7-.7 8.7-1.5"/><path class="st37" d="M42.9 103.3c0-.8-3.8-1.5-8.4-1.5-4.6 0-8.4.7-8.4 1.5s3.8 1.5 8.4 1.5c4.6-.1 8.4-.7 8.4-1.5"/><path class="st37" d="M42.5 103.3c0-.8-3.6-1.4-8-1.4s-8 .6-8 1.4c0 .8 3.6 1.4 8 1.4s8-.7 8-1.4"/><path class="st38" d="M42.2 103.3c0-.8-3.4-1.4-7.7-1.4-4.2 0-7.7.6-7.7 1.4 0 .8 3.4 1.4 7.7 1.4 4.2-.1 7.7-.7 7.7-1.4"/><path class="st38" d="M41.8 103.3c0-.7-3.3-1.3-7.3-1.3-4.1 0-7.3.6-7.3 1.3 0 .7 3.3 1.3 7.3 1.3 4.1 0 7.3-.6 7.3-1.3"/><path class="st39" d="M41.5 103.3c0-.7-3.1-1.2-7-1.2s-7 .6-7 1.2c0 .7 3.1 1.2 7 1.2s7-.6 7-1.2"/><path class="st39" d="M41.1 103.3c0-.6-3-1.2-6.6-1.2-3.7 0-6.6.5-6.6 1.2 0 .6 3 1.2 6.6 1.2 3.7-.1 6.6-.6 6.6-1.2"/><path class="st40" d="M40.8 103.3c0-.6-2.8-1.1-6.3-1.1s-6.3.5-6.3 1.1c0 .6 2.8 1.1 6.3 1.1s6.3-.5 6.3-1.1"/><path class="st41" d="M40.4 103.3c0-.6-2.7-1.1-5.9-1.1-3.3 0-5.9.5-5.9 1.1 0 .6 2.7 1.1 5.9 1.1 3.3-.1 5.9-.6 5.9-1.1"/><path class="st42" d="M40.1 103.3c0-.5-2.5-1-5.6-1-3.1 0-5.6.4-5.6 1 0 .5 2.5 1 5.6 1 3.1-.1 5.6-.5 5.6-1"/><path class="st42" d="M39.7 103.3c0-.5-2.3-.9-5.2-.9-2.9 0-5.2.4-5.2.9s2.3.9 5.2.9c2.9 0 5.2-.4 5.2-.9"/><path class="st43" d="M39.4 103.3c0-.5-2.2-.9-4.9-.9s-4.9.4-4.9.9 2.2.9 4.9.9c2.7-.1 4.9-.5 4.9-.9"/><path class="st43" d="M39 103.3c0-.4-2-.8-4.5-.8s-4.5.4-4.5.8 2 .8 4.5.8 4.5-.4 4.5-.8"/><path class="st44" d="M38.7 103.3c0-.4-1.9-.7-4.2-.7-2.3 0-4.2.3-4.2.7 0 .4 1.9.7 4.2.7 2.3 0 4.2-.3 4.2-.7"/><path class="st45" d="M38.3 103.3c0-.4-1.7-.7-3.8-.7-2.1 0-3.8.3-3.8.7 0 .4 1.7.7 3.8.7 2.1-.1 3.8-.4 3.8-.7"/><path class="st45" d="M38 103.3c0-.3-1.6-.6-3.5-.6s-3.5.3-3.5.6 1.6.6 3.5.6 3.5-.3 3.5-.6"/><path class="st46" d="M37.6 103.3c0-.3-1.4-.6-3.1-.6-1.7 0-3.1.2-3.1.6 0 .3 1.4.6 3.1.6 1.7-.1 3.1-.3 3.1-.6"/><path class="st46" d="M37.3 103.3c0-.3-1.3-.5-2.8-.5-1.5 0-2.8.2-2.8.5s1.3.5 2.8.5c1.5-.1 2.8-.3 2.8-.5"/><path class="st47" d="M36.9 103.3c0-.2-1.1-.4-2.4-.4-1.4 0-2.4.2-2.4.4s1.1.4 2.4.4c1.4 0 2.4-.2 2.4-.4"/><path class="st47" d="M36.6 103.3c0-.2-.9-.4-2.1-.4-1.2 0-2.1.2-2.1.4s.9.4 2.1.4c1.2-.1 2.1-.2 2.1-.4"/><path class="st48" d="M36.2 103.3c0-.2-.8-.3-1.7-.3-1 0-1.7.1-1.7.3 0 .2.8.3 1.7.3 1 0 1.7-.2 1.7-.3"/><path class="st49" d="M35.9 103.3c0-.1-.6-.2-1.4-.2-.8 0-1.4.1-1.4.2s.6.2 1.4.2c.8 0 1.4-.1 1.4-.2"/><path class="st49" d="M35.5 103.3c0-.1-.5-.2-1-.2-.6 0-1 .1-1 .2s.5.2 1 .2c.6-.1 1-.1 1-.2"/><path class="st50" d="M35.2 103.3c0-.1-.3-.1-.7-.1-.4 0-.7.1-.7.1 0 .1.3.1.7.1.4 0 .7-.1.7-.1"/><path class="st51" d="M34.8 103.3s-.2-.1-.3-.1c-.2 0-.3 0-.3.1 0 0 .2.1.3.1.2-.1.3-.1.3-.1"/><path class="st52" d="M63.1 48.5c0-15.8-12.8-28.6-28.6-28.6S5.9 32.7 5.9 48.5c0 12.7 8.3 23.5 19.8 27.2l8.8 26.5 8.8-26.5C54.8 72 63.1 61.2 63.1 48.5"/><path class="st53" d="M22.9 65.1c-.1.1-.4.2-.7.2-.3 0-.5-.1-.7-.2-.2-.2-.2-.4-.2-.7h.7c0 .1 0 .2.1.3 0 0 .1.1.2.1s.2 0 .2-.1.1-.1.1-.3c0-.3 0-.4-.3-.4l-.4-.2c-.3-.1-.4-.3-.4-.8 0-.3.1-.5.3-.7.1-.1.3-.2.6-.2s.5.1.6.2c.2.2.2.4.2.7h-.6c0-.1 0-.2-.1-.3 0 0-.1-.1-.2-.1s-.1 0-.2.1c0 .1-.1.1-.1.2 0 .2 0 .3.2.3l.4.2c.4.2.5.3.5.9 0 .4 0 .6-.2.8m.5.2v-.5l.8-2.1h-.8v-.5h1.5v.4l-.9 2.1h.9v.6zm2.7-3.3h-.4l.3-.6h.5l-.4.6zm-.9 3.3v-3.1h1.4v.6h-.8v.7h.7v.5h-.7v.7h.8v.6h-1.4zm3.2-.2c-.2.1-.3.2-.6.2s-.5-.1-.7-.3c-.2-.3-.2-.7-.2-1.3 0-.6 0-1 .2-1.3.1-.2.3-.3.7-.3.3 0 .4.1.6.2.2.2.3.4.3.7h-.6v-.2c0-.1-.1-.1-.2-.1s-.2.1-.2.1c-.1.1-.1.5-.1.9s0 .8.1.9c0 .1.1.1.2.1s.2 0 .2-.1v-.2h.6c0 .3-.1.5-.3.7m1.8.2V64h-.5v1.3h-.6v-3.1h.6v1.2h.5v-1.2h.6v3.1zm1.1 0v-3.1h1.4v.5h-.8v.7h.7v.6h-.7v.7h.8v.6zm3.1 0l-.7-1.6v1.6h-.6v-3.1h.6l.6 1.5v-1.5h.6v3.1zm2-1.2v1.2h-.6v-1.2l-.6-1.9h.6l.3 1.1.3-1.1h.6zm.9-1.9h.6v3.1h-.6zm2.8.5v2.6h-.6v-2.6H39v-.5h1.6v.5zm.8 2.6v-3.1h1.5v.5h-.8v.7h.7v.6h-.7v.7h.8v.6zm2.7-2.6h-.3v.8h.3c.2 0 .2-.2.2-.4.1-.2.1-.4-.2-.4m.4 2.6l-.4-1.2h-.2v1.2h-.6v-3.1h.9c.7 0 .9.4.9 1 0 .3-.1.6-.4.8l.5 1.4H44zM32.3 31h-4l-1.9 5H29zm10.6 7v13.6c0 2.4-1.4 3.8-3.6 3.8-1.1 0-1.9-.3-2.6-1-.4 1.3-1.2 2.3-2.1 3.2 1.3.9 2.9 1.4 4.7 1.4 4.2 0 7.6-2.9 7.6-7.3V38h-4zm-11.3 0v13.6c0 2.4-1.4 3.8-3.6 3.8s-3.6-1.4-3.6-3.8V38h-4v13.7c0 4.4 3.4 7.3 7.6 7.3 4.2 0 7.6-2.9 7.6-7.3V38h-4zM46 65.3h-.6l-.7-3.1h.7l.3 2.2.4-2.2h.6z"/></svg>