<svg viewBox="0 0 19.3 15.4" xmlns="http://www.w3.org/2000/svg"><path d="M19.3 1.6v12.2c0 .4-.2.8-.5 1.1s-.7.5-1.1.5H1.6c-.4 0-.8-.2-1.1-.5s-.5-.6-.5-1.1V1.6C0 1.2.2.8.5.5S1.2 0 1.6 0h16.1c.4 0 .8.2 1.1.5s.5.7.5 1.1zm-1.6-.3H1.6c-.1 0-.2 0-.2.1-.1 0-.1.1-.1.2v12.2c0 .1 0 .2.1.2.1.1.1.1.2.1h16.1c.1 0 .2 0 .2-.1.1 0 .1-.1.1-.2V1.6c0-.1 0-.2-.1-.2-.1-.1-.1-.1-.2-.1zM5.9 3.1c.3.4.5.9.5 1.4s-.2 1-.6 1.4-.8.5-1.3.5-1-.2-1.4-.6-.5-.8-.5-1.3.2-1 .6-1.4.8-.5 1.3-.5 1 .2 1.4.5zm10.8 5.3v4.5H2.6V11l3.2-3.2 1.6 1.6 5.1-5.1 4.2 4.1z"/></svg>